<svg width="73" height="63" viewBox="0 0 73 63" fill="none" xmlns="http://www.w3.org/2000/svg">
<path fill-rule="evenodd" clip-rule="evenodd" d="M15.1154 0C11.0178 0 7.98576 3.94832 8.12153 8.23018C8.25183 12.3439 8.08254 17.6717 6.86423 22.0166C5.64158 26.3736 3.57526 29.1347 0.199463 29.4891V33.4902C3.57526 33.8453 5.64158 36.605 6.86409 40.9627C8.08254 45.3075 8.25169 50.6354 8.12139 54.7491C7.98562 59.0303 11.0176 62.9793 15.1159 62.9793H57.1026C61.2001 62.9793 64.2316 59.0309 64.0958 54.7491C63.9655 50.6354 64.1348 45.3075 65.3531 40.9627C66.5758 36.605 68.6371 33.8443 72.013 33.4902V29.4891C68.6372 29.1339 66.5759 26.3743 65.3531 22.0166C64.1347 17.6723 63.9655 12.3439 64.0958 8.23018C64.2316 3.94894 61.2001 0 57.1026 0H15.1148H15.1154ZM48.8867 38.7679C48.8867 44.6638 44.8919 48.2395 38.2625 48.2395H26.9774C26.6545 48.2395 26.3449 48.0983 26.1167 47.847C25.8884 47.5957 25.7602 47.2549 25.7602 46.8995V16.0799C25.7602 15.7245 25.8884 15.3837 26.1167 15.1324C26.3449 14.8811 26.6545 14.7399 26.9774 14.7399H38.1982C43.726 14.7399 47.3539 18.0363 47.3539 23.0973C47.3539 26.6496 44.9133 29.8297 41.8042 30.3868V30.5721C46.0367 31.0832 48.8867 34.3104 48.8867 38.7679ZM37.032 18.9876H30.5973V28.9936H36.0169C40.2065 28.9936 42.5166 27.1363 42.5166 23.8166C42.5161 20.7055 40.5301 18.9876 37.032 18.9876ZM30.5973 32.9636V43.9904H37.2687C41.6308 43.9904 43.9413 42.0635 43.9413 38.4422C43.9413 34.8209 41.566 32.963 36.9882 32.963H30.5973V32.9636Z" fill="#9E4BFF"/>
</svg>
