<svg width="73" height="64" viewBox="0 0 73 64" fill="none" xmlns="http://www.w3.org/2000/svg">
<path d="M9.44403 8.23362L9.44403 8.23358C9.32106 4.35552 12.0541 1.0351 15.4384 1.0351H57.4256C60.8097 1.0351 63.5423 4.35597 63.4193 8.23358L63.4193 8.23362C63.2881 12.3772 63.453 17.8282 64.7133 22.3217L64.7133 22.3218C65.8707 26.4463 67.8778 29.5808 71.336 30.3708V32.6784C67.8775 33.4677 65.8704 36.6035 64.7133 40.7276L64.7133 40.7278C63.4531 45.2219 63.2881 50.6722 63.4193 54.8158L63.4193 54.8159C63.5423 58.694 60.8097 62.0144 57.4256 62.0144H15.4389C12.0539 62.0144 9.32092 58.6933 9.44389 54.8159C9.57514 50.6722 9.41025 45.2219 8.14995 40.7278L8.14992 40.7277C6.99254 36.6021 4.98083 33.4685 1.52246 32.6786V30.3709C4.981 29.5815 6.99263 26.4464 8.15004 22.3219L8.1501 22.3217C9.41024 17.8276 9.57528 12.3772 9.44403 8.23362Z" stroke="black" stroke-width="2"/>
</svg>
