<svg id="Layer_2" data-name="Layer 2" xmlns="http://www.w3.org/2000/svg" viewBox="0 0 283.46 283.46"><defs><style>.cls-1{fill:#f53b3b;}.cls-2{fill-rule:evenodd;}.cls-3{fill:#d9d9d9;}</style></defs><title>buzon-bandera-solo</title><path class="cls-1" d="M76.82,33.09l54,97.71L154,120.55,83.65,33.09Z"/><path class="cls-2" d="M75.66,32.41H84l71.14,88.41L130.5,131.68ZM78,33.77l53.12,96.15,21.84-9.64L83.33,33.77Z"/><path class="cls-3" d="M158.13,141.73a16.4,16.4,0,1,1-16.4-16.4A16.4,16.4,0,0,1,158.13,141.73Z"/><path class="cls-2" d="M141.73,156.77a15,15,0,1,0-15-15A15,15,0,0,0,141.73,156.77Zm0,1.36a16.4,16.4,0,1,0-16.4-16.4A16.4,16.4,0,0,0,141.73,158.13Z"/></svg>