<?xml version="1.0" encoding="utf-8"?>
<!-- Generator: Adobe Illustrator 24.0.2, SVG Export Plug-In . SVG Version: 6.00 Build 0)  -->
<svg version="1.1" id="Layer_1" xmlns="http://www.w3.org/2000/svg" xmlns:xlink="http://www.w3.org/1999/xlink" x="0px" y="0px"
	 viewBox="0 0 429 460.3" style="enable-background:new 0 0 429 460.3;" xml:space="preserve">
<style type="text/css">
	.st0{fill:#FFFFFF;stroke:#000000;stroke-width:1.5;stroke-miterlimit:10;}
	.st1{fill:#FEA34E;}
	.st2{fill-rule:evenodd;clip-rule:evenodd;}
	.st3{fill:#F1EEEE;}
	.st4{fill-rule:evenodd;clip-rule:evenodd;fill:#0F0F0F;}
</style>
<polygon class="st0" points="313.6,459.9 155,120.8 133.9,120.8 292.9,459.9 "/>
<path class="st1" d="M339.9,8.1H5.1l32.8,71.1h323.2L339.9,8.1z"/>
<path class="st2" d="M4,7.4h336.4L362,79.8H37.4L4,7.4z M6.1,8.8l32.2,69.7h321.8L339.4,8.8H6.1z"/>
<path class="st3" d="M339.9,137.2l21.2-56.7L37.9,79.8l-18.4,57.4H339.9z"/>
<path class="st2" d="M37.4,79.1L362,79.8l-21.7,58.1H18.5L37.4,79.1z M38.4,80.5l-18,56h319.1l20.7-55.3L38.4,80.5z"/>
<path class="st4" d="M11.7,22.8l1.8,2.1l-4.7,4.1L15.2,43l-2.5,1.1l-7.3-16L11.7,22.8z"/>
</svg>
