<svg width="51" height="59" viewBox="0 0 51 59" fill="none" xmlns="http://www.w3.org/2000/svg">
<path d="M24.9518 0.000140194C24.845 0.00379252 24.7222 0.0430871 24.6549 0.137903L9.54679 18.3105C9.29538 18.627 9.27839 18.6976 9.61531 18.7009L39.8773 18.6205C40.2932 18.5863 40.295 18.6073 40.0257 18.2531L25.1802 0.0805179C25.1495 0.032471 25.0587 -0.00250115 24.9518 0.000140194ZM27.8524 1.61882L41.476 18.2761C41.6585 18.4986 41.703 18.5112 42.0242 18.3565L49.2071 15.0503C49.6776 14.8368 49.6124 14.7931 49.2985 14.5796L27.8524 1.61882ZM21.4917 2.22724C21.4854 2.21365 21.3746 2.29689 21.1263 2.46833L1.34752 15.5554L7.53694 18.3794C7.85983 18.4864 7.95628 18.4922 8.165 18.2302L21.2177 2.56017C21.4016 2.34619 21.4979 2.24083 21.4917 2.22724ZM27.7497 8.8626C28.624 8.86263 29.3239 9.16563 29.8394 9.76953C30.3548 10.3704 30.6456 11.2289 30.7188 12.341C30.7917 13.4501 30.6067 14.3086 30.1706 14.9125C29.7343 15.5134 29.0807 15.8079 28.2065 15.8079C27.3291 15.8079 26.632 15.5134 26.1166 14.9125C25.6011 14.3086 25.3103 13.4501 25.2374 12.341C25.1642 11.2289 25.3492 10.3704 25.7855 9.76953C26.2216 9.16563 26.8723 8.86263 27.7497 8.8626ZM22.0056 8.93148C22.8026 8.93152 23.4002 9.10682 23.787 9.45956C24.1769 9.81233 24.3162 10.2982 24.221 10.929C24.1659 11.2937 24.0222 11.6338 23.787 11.9507C23.5523 12.2646 23.0973 12.6958 22.4167 13.2249L20.8065 14.4763H23.73L23.5472 15.7391H18.7053L18.8995 14.4763L21.6516 12.3181C21.8984 12.1208 22.09 11.9324 22.2226 11.7441C22.3551 11.5557 22.4317 11.3504 22.4624 11.1471C22.5098 10.8332 22.4503 10.5808 22.2683 10.3894C22.0889 10.1981 21.8168 10.1025 21.4689 10.1024C21.2012 10.1025 20.9025 10.1695 20.5667 10.2861C20.2313 10.3997 19.8675 10.564 19.4704 10.7912L19.6874 9.32179C20.0934 9.19325 20.4874 9.10057 20.8751 9.03482C21.2631 8.96605 21.6428 8.93152 22.0056 8.93148ZM27.8296 10.045C27.4608 10.045 27.2109 10.2178 27.0759 10.5616C26.9407 10.9025 26.8952 11.4925 26.9503 12.3295C27.0059 13.1756 27.1239 13.7621 27.3043 14.1089C27.4847 14.4557 27.7577 14.637 28.1265 14.637C28.4923 14.637 28.7454 14.4557 28.8802 14.1089C29.015 13.7621 29.0614 13.1756 29.0058 12.3295C28.9507 11.4925 28.8318 10.9025 28.6518 10.5616C28.4746 10.2178 28.1983 10.045 27.8296 10.045ZM11.4082 10.9749C11.5665 10.9749 11.6777 11.0148 11.7279 11.1012C11.8273 11.2731 11.7016 11.6083 11.3625 12.1229C11.0223 12.6393 10.6316 13.0783 10.1863 13.4316C9.73974 13.7839 9.24584 14.049 8.71314 14.2237C8.36765 14.337 8.12926 14.3667 7.99373 14.3041C7.85695 14.2404 7.82543 14.0816 7.90237 13.8449C7.645 14.1185 7.3762 14.3558 7.09155 14.5452C6.80695 14.7345 6.51698 14.8815 6.21226 14.9814C5.75872 15.1301 5.4856 15.1193 5.41289 14.9469C5.34013 14.7746 5.47058 14.444 5.78971 13.9596C6.10652 13.4787 6.46078 13.0708 6.86317 12.7427C7.26314 12.4154 7.6977 12.1805 8.1536 12.031C8.45832 11.9311 8.67094 11.9047 8.7931 11.9621C8.9164 12.0176 8.94504 12.1548 8.88445 12.3639C9.1629 12.0611 9.45724 11.8061 9.7752 11.5947C10.0919 11.3824 10.4232 11.2144 10.7687 11.1011C11.035 11.0138 11.2499 10.9753 11.4082 10.9749ZM41.8872 11.2504C42.159 11.4791 42.4102 11.7156 42.6408 11.9392C42.8732 12.1628 43.0842 12.3785 43.2689 12.5936C43.6746 13.066 43.8903 13.4334 43.9084 13.6956C43.9281 13.9597 43.7514 14.0949 43.3831 14.0974C43.1702 14.0974 42.9212 14.035 42.6408 13.9252C42.3622 13.8154 41.9194 13.5904 41.3047 13.2365L39.843 12.3984L41.339 14.1319L40.5967 14.1433L38.1301 11.2733L38.8724 11.2619L41.3732 12.6969C41.599 12.8248 41.7927 12.9229 41.9557 12.9839C42.1186 13.0449 42.2595 13.0765 42.3782 13.0757C42.5614 13.0757 42.648 13.0065 42.6523 12.8806C42.6581 12.7564 42.5781 12.5932 42.401 12.3869C42.2648 12.2283 42.0829 12.047 41.8529 11.8589C41.6246 11.6707 41.348 11.4761 41.0306 11.2619L41.8872 11.2504ZM10.3919 12.0196C10.3071 12.0277 10.1927 12.0453 10.0607 12.0885C9.79434 12.1758 9.55846 12.2976 9.35264 12.4443C9.14445 12.5919 8.97528 12.7596 8.85018 12.9494C8.72392 13.1411 8.69647 13.2718 8.77026 13.3283C8.844 13.3848 9.02017 13.3689 9.28413 13.2824C9.54807 13.1958 9.78278 13.0758 9.99213 12.9265C10.1991 12.778 10.3683 12.6016 10.4946 12.4099C10.6197 12.22 10.6471 12.098 10.5746 12.0425C10.5371 12.0154 10.4766 12.0115 10.3919 12.0196ZM7.91378 12.8921C7.84591 12.8972 7.7579 12.9145 7.65113 12.9494C7.43758 13.0195 7.25019 13.124 7.08017 13.2479C6.90768 13.3726 6.76282 13.513 6.65761 13.6727C6.55007 13.8359 6.52095 13.9432 6.57769 13.9941C6.63557 14.0433 6.77761 14.029 6.98881 13.9596C7.20235 13.8896 7.3873 13.7973 7.55978 13.6726C7.7334 13.5461 7.87475 13.3996 7.98227 13.2363C8.08749 13.0767 8.12013 12.9756 8.06224 12.9264C8.03337 12.9018 7.98162 12.8869 7.91378 12.8921ZM50.2577 15.8309C50.1962 15.8353 50.0993 15.8709 49.9494 15.9342L42.5723 19.3208C42.3104 19.4403 42.3269 19.6014 42.4239 19.8029L51 41.6721L50.3834 16.1983C50.3643 15.9197 50.3603 15.8235 50.2577 15.8309ZM0.787942 16.5082L0 41.2932L7.26287 19.8489C7.37016 19.5322 7.36763 19.5161 7.14867 19.4126L0.787942 16.5082ZM40.277 19.7226L9.32979 19.8029C8.88752 19.7963 8.90583 19.7967 9.12426 20.1588L24.8376 46.8036C25.103 47.2102 25.0746 47.1974 25.3515 46.7808L40.4483 20.0901C40.5804 19.8781 40.675 19.7296 40.277 19.7226ZM41.5103 20.4228C41.4818 20.435 41.4506 20.543 41.3618 20.7098L26.1623 47.5957C25.9965 47.8795 25.9571 47.9812 26.3565 47.9171L50.4861 44.5765C50.8688 44.4887 50.8572 44.3511 50.7259 43.968L41.6245 20.7213C41.5643 20.4986 41.5389 20.4108 41.5103 20.4228ZM8.14216 20.6754C8.11257 20.6967 8.08596 20.81 8.02796 20.9739L0.31974 43.7844C0.188484 44.269 0.173641 44.451 0.662325 44.542L23.7185 47.8941C24.1545 47.96 24.0987 47.7393 23.9926 47.5268L8.30203 20.9165C8.20328 20.7154 8.17162 20.654 8.14216 20.6754ZM50.0978 20.9739L50.1435 21.9267L49.367 22.4318L49.5497 25.8873L50.3262 25.1181L50.3834 26.0594L49.5954 26.8171L48.7618 27.3567L48.5334 22.9599L48.168 23.1895L48.1792 23.465C48.0082 23.4411 47.8415 23.4518 47.6768 23.4878C47.5106 23.5273 47.3539 23.5943 47.1971 23.6944C46.9643 23.8432 46.7886 24.0172 46.6719 24.2225C46.5535 24.4288 46.4998 24.6519 46.512 24.8883C46.5243 25.1319 46.5947 25.2706 46.7289 25.3131C46.8618 25.3589 47.0518 25.3094 47.2999 25.1524L47.6539 24.9228L47.6996 25.8182L47.3342 26.0478C47.1135 26.1888 46.9457 26.3534 46.8431 26.53C46.7407 26.7088 46.6947 26.9048 46.7061 27.1269C46.7166 27.3323 46.778 27.4606 46.8888 27.5057C46.9996 27.5509 47.1538 27.5134 47.3456 27.3909C47.4871 27.3005 47.6261 27.1776 47.7681 27.0351C47.9102 26.8925 48.0526 26.7307 48.1906 26.5414L48.2363 27.5516C48.0667 27.7389 47.9024 27.8982 47.7339 28.0453C47.5653 28.1924 47.3958 28.3191 47.2314 28.4241C46.7885 28.7071 46.4574 28.8118 46.2265 28.7226C45.9941 28.6367 45.8617 28.366 45.8382 27.9075C45.8222 27.5947 45.8576 27.3027 45.9524 27.0351C46.0473 26.7698 46.1964 26.5243 46.3978 26.3118C46.1631 26.3655 45.9802 26.3184 45.8496 26.1626C45.7176 26.0101 45.6509 25.7607 45.6326 25.4049C45.6056 24.8748 45.7078 24.3893 45.9524 23.947C46.1971 23.5071 46.5753 23.1274 47.0715 22.8105C47.2466 22.6987 47.4179 22.6024 47.5968 22.535C47.6334 22.5207 47.6741 22.5129 47.711 22.5004L47.7223 22.489L50.0976 20.9737L50.0978 20.9739ZM1.43887 22.8336C1.5553 22.8259 1.67737 22.8641 1.8157 22.9484C2.12066 23.1341 2.34376 23.4823 2.47803 23.9931C2.48648 24.0254 2.49333 24.0632 2.50069 24.0964L2.54636 23.4879L4.1908 24.4867L4.12227 25.3247L3.58558 25.0033L3.34574 28.011L3.90532 28.1258L3.84821 28.9409L3.2772 28.8376L2.70622 28.4817L3.01458 24.6474L2.54636 24.3719C2.61657 24.8117 2.63952 25.3182 2.59204 25.8987C2.52896 26.6702 2.37759 27.2076 2.14669 27.5289C1.91459 27.8515 1.63078 27.9085 1.2902 27.7011C1.1823 27.6354 1.08082 27.5552 0.981899 27.46C0.882967 27.3647 0.779078 27.2544 0.684968 27.1271L0.753505 26.2661C0.845358 26.4205 0.943118 26.5476 1.02757 26.6449C1.11182 26.7444 1.19498 26.8235 1.2788 26.8745C1.45903 26.9843 1.60718 26.9675 1.72416 26.8286C1.84096 26.6918 1.91515 26.4297 1.96398 26.048C1.88644 26.108 1.80892 26.1389 1.72416 26.1398C1.63918 26.1435 1.54546 26.1174 1.45008 26.0594C1.21011 25.9133 1.03721 25.659 0.91338 25.2903C0.788429 24.9209 0.739303 24.5029 0.776332 24.0505C0.817235 23.5501 0.929673 23.1965 1.11892 22.9943C1.21347 22.8943 1.32221 22.8415 1.43867 22.8336H1.43887ZM1.61012 23.6716C1.56756 23.6812 1.52771 23.7117 1.49596 23.7635C1.43125 23.8685 1.39268 24.0529 1.37035 24.326C1.34804 24.5991 1.351 24.8238 1.39301 24.9918C1.43415 25.1613 1.51451 25.2826 1.62141 25.3477C1.72722 25.4122 1.80791 25.3841 1.87263 25.2788C1.93612 25.1752 1.97592 24.9894 1.99824 24.7163C2.02054 24.4432 2.01652 24.22 1.97557 24.0505C1.93322 23.8824 1.86444 23.7705 1.75862 23.7061C1.70516 23.6734 1.65275 23.6621 1.61012 23.6716ZM19.7445 25.3706H21.3661V26.5875H24.3238V28.0684L21.6516 32.0634H19.7445V27.8388H18.7967V26.5875H19.7445V25.3706ZM25.363 25.3706H30.0108V26.5646H28.5034V30.8925L30.0564 30.571V31.742L28.5034 32.0634H26.8703V26.5646H25.363V25.3706ZM21.3661 27.8388V30.6514L23.2503 27.8388H21.3661ZM9.88939 32.9014L10.9628 34.3709L10.4604 34.7038C10.5379 34.7214 10.6096 34.7346 10.6888 34.7612C11.3194 34.975 11.8996 35.4478 12.4245 36.1617C13.0031 36.9487 13.2365 37.6922 13.1211 38.4118C13.0016 39.1301 12.5377 39.7546 11.7394 40.283C10.9211 40.8246 10.0977 41.0052 9.2613 40.8111C8.42066 40.6157 7.68065 40.0713 7.03448 39.1924C6.8297 38.9139 6.6438 38.6401 6.48634 38.3544C6.32884 38.0687 6.19334 37.7742 6.07523 37.4704L6.98881 36.862C7.07818 37.1848 7.18795 37.4766 7.30855 37.7345C7.42689 37.9938 7.56058 38.2299 7.71965 38.4462C8.06163 38.9114 8.43559 39.1996 8.83877 39.3187C9.23972 39.4393 9.6588 39.3899 10.1063 39.158C9.86677 39.0512 9.65017 38.9063 9.444 38.7332C9.23561 38.5616 9.04254 38.3479 8.86162 38.1018C8.40629 37.4826 8.18128 36.8857 8.19927 36.311C8.2153 35.7335 8.46167 35.2854 8.94155 34.9678C9.07424 34.88 9.21359 34.8138 9.35264 34.7612L8.61039 33.751L9.88939 32.9014ZM39.0323 35.0252L40.277 35.9895L42.264 40.6733L41.2705 42.1542L37.6847 39.3991L37.1937 40.1338L36.1317 39.3187L36.6341 38.5725L35.5949 37.7804L36.4514 36.5176L37.4792 37.3212L39.0323 35.0252ZM10.7458 36.1847C10.5524 36.1975 10.3465 36.282 10.1292 36.4258C9.83951 36.6175 9.68046 36.8241 9.63815 37.0572C9.59159 37.289 9.66372 37.5505 9.86653 37.8263C10.0673 38.0995 10.2929 38.2557 10.5403 38.297C10.7834 38.3371 11.05 38.2591 11.3396 38.0674C11.6294 37.8757 11.7956 37.6678 11.8421 37.436C11.8845 37.203 11.8144 36.94 11.6137 36.6668C11.4109 36.391 11.1831 36.2363 10.94 36.1962C10.8781 36.1859 10.8103 36.1803 10.7458 36.1847ZM39.5233 36.6783L38.5412 38.1363L40.9165 39.973L39.5233 36.6783ZM2.14688 45.8737L24.7691 58.7771C25.062 58.9555 25.1305 58.8905 25.0889 58.5819L24.6092 49.5358C24.5962 49.2438 24.5568 49.125 24.2553 49.0766L2.14688 45.8737ZM48.9216 45.8965L25.9568 49.0879C25.6538 49.1328 25.7085 49.2823 25.7055 49.5011L26.1966 58.708C26.2218 58.9874 26.2137 59.0875 26.5506 58.9147L48.9216 45.8965ZM34.5443 49.8685L36.223 51.7397L37.5363 50.9591L37.9017 51.3724L34.453 53.4273L33.8934 53.7602L30.4447 55.8151L30.0793 55.4133L31.3925 54.6327L30.0564 53.1632L28.8231 54.0701L28.4577 53.6684L29.691 52.7729L31.0956 51.9349L32.7857 53.8061L33.528 53.3584L34.0875 53.0255L34.8298 52.5778L33.5051 51.1083L32.2604 52.0153L31.9064 51.6134L33.1397 50.7066L34.5443 49.8685ZM19.4476 50.144C19.8919 50.1643 20.2931 50.3187 20.6695 50.6032C21.0873 50.9191 21.2643 51.2598 21.1948 51.6364C21.1253 52.013 20.8152 52.3895 20.2698 52.7614C19.9454 52.9826 19.6102 53.1337 19.2763 53.2321L19.6646 53.5306L18.7852 54.1275L18.0087 53.5421L18.2942 53.3469C17.8079 53.3148 17.3686 53.1549 16.9695 52.8533C16.8193 52.7397 16.683 52.6293 16.5698 52.5089C16.4552 52.3895 16.3576 52.2616 16.2729 52.13L16.901 51.7053C16.9675 51.8493 17.0425 51.9705 17.1294 52.0841C17.2178 52.1967 17.3204 52.3054 17.4377 52.3941C17.6838 52.5802 17.9558 52.6754 18.2371 52.6811C18.5199 52.6857 18.8073 52.5929 19.1164 52.417C18.9434 52.3952 18.7848 52.3597 18.6368 52.3022C18.4887 52.2448 18.3545 52.17 18.2257 52.0726C17.898 51.8249 17.7349 51.5475 17.7347 51.2576C17.7382 50.9677 17.9068 50.7136 18.2371 50.4884C18.6022 50.2395 19.0047 50.1251 19.4476 50.144ZM19.6417 50.8328C19.4688 50.8457 19.2905 50.9166 19.0936 51.0509C18.8951 51.1863 18.778 51.3179 18.751 51.4412C18.7254 51.5636 18.7892 51.6764 18.9337 51.7856C19.0782 51.8949 19.2304 51.9469 19.4019 51.9349C19.5749 51.9218 19.763 51.8406 19.9615 51.7053C20.1584 51.571 20.2656 51.4498 20.2926 51.3265C20.3197 51.2031 20.266 51.0798 20.1214 50.9706C19.9768 50.8613 19.8147 50.8198 19.6417 50.8328Z" fill="#D00000"/>
</svg>
