<svg width="119" height="57" viewBox="0 0 119 57" fill="none" xmlns="http://www.w3.org/2000/svg">
<path d="M38.8516 39.2307C38.8516 38.6127 38.9874 37.5827 39.1912 35.7973C39.395 34.0119 40.5497 28.8618 45.0325 25.9778C44.8288 25.9778 44.4891 25.8404 44.2854 25.8404C43.6741 25.8404 41.8402 25.7031 39.2591 26.6644C40.278 25.0851 44.0816 22.5444 45.508 21.789C45.6438 21.6517 45.8476 21.583 45.9155 21.583C44.2854 16.2956 40.8213 11.9695 35.9309 9.42873C32.8744 7.7807 29.6821 6.95669 25.403 6.81935H16.8447C9.98458 6.81935 6.86016 6.68201 4.41495 6.20133C2.37728 5.65199 0.543371 4.5533 0.543371 4.5533L0 4.20996L0.135843 4.82797C0.135843 5.03398 0.679217 9.70341 6.18093 13.8235C7.19977 14.6475 8.01483 15.4029 8.01483 18.0809V43.1448C8.01483 45.8229 7.47146 46.5782 6.24886 47.2649C4.89041 48.0889 2.17351 49.6683 2.17351 49.7369L1.22259 50.2863H23.5691C29.8179 50.2863 33.7574 49.2563 37.9686 46.3722C38.7837 45.8229 39.5308 45.2048 40.1421 44.7242C39.7346 41.4968 40.278 38.6127 40.6855 36.9647C40.6176 36.8273 39.4629 37.8573 38.8516 39.2307ZM24.5879 39.7114H19.7654V17.4629H24.5879C30.9047 17.4629 34.5046 21.5143 34.5046 28.5871C34.5046 35.7286 30.9047 39.7114 24.5879 39.7114ZM86.5331 45.2735C86.9406 44.4495 87.1444 43.4195 87.1444 42.3894C87.1444 41.3594 86.8048 40.3294 86.3973 39.5054L87.6199 39.7114C88.4349 39.8487 89.9972 40.8787 89.9972 42.3894C89.9972 44.2435 88.1632 45.0675 86.5331 45.2735ZM110.17 46.3035C105.891 49.1876 102.019 50.2176 95.7706 50.2176H95.5668C96.5856 48.9816 97.129 47.3336 97.129 45.6855C97.129 43.2821 95.9743 41.1534 94.1404 39.7114H96.7894C103.106 39.7114 106.706 35.66 106.706 28.5871C106.706 21.4457 103.106 17.4629 96.7894 17.4629H91.9669V20.2783C91.2198 20.141 90.6085 20.0723 89.9292 20.0723C88.7746 20.0723 87.484 20.2783 87.1444 20.4843C88.5029 19.317 89.9972 18.8363 91.016 18.6303C86.5331 17.6003 82.3219 20.2096 81.7106 20.8963C82.254 19.729 83.2728 18.6989 83.9521 18.0123C82.5257 18.5616 81.1672 19.2483 80.0805 20.0036V18.1496C80.0805 15.3342 79.3333 14.6475 78.2466 13.8922C72.7449 9.84074 72.2015 5.10265 72.2015 4.89664L72.0657 4.27862L72.609 4.62196C72.609 4.62196 74.4429 5.858 76.4806 6.27001C78.8579 6.81935 82.1182 6.88802 88.9104 6.88802H97.4686C101.748 7.09402 104.94 7.84937 107.997 9.49741C114.925 13.1368 119 20.2096 119 28.4498C119 33.5313 117.37 38.4754 114.517 41.9774C113.566 43.6255 112.004 45.0675 110.17 46.3035ZM88.5708 37.7887C87.0086 37.7887 85.3784 38.132 85.3784 38.132C85.0388 37.7887 83.0011 36.278 82.1182 36.072C83.7483 37.8574 83.2728 39.7114 82.8653 40.3294C82.5257 40.8787 81.9144 41.1534 81.4389 41.1534C81.0314 41.1534 80.6239 41.0161 80.2163 40.7414V30.6472C80.6239 30.0978 81.0314 29.4798 81.5748 28.9992C82.7295 27.6258 84.5634 26.8018 86.3973 26.8018C87.5519 26.8018 88.6387 27.1451 89.3859 27.7631L89.9972 28.1752L90.5405 27.6258C90.8801 27.2825 91.5594 27.0078 92.3065 26.6644V38.544C91.016 37.9947 89.8613 37.7887 88.5708 37.7887ZM86.5331 23.7804C82.7295 23.231 76.9561 25.8404 73.9675 29.5485C74.5788 27.0765 77.2277 23.025 80.488 21.171C80.488 21.171 78.8579 23.231 79.5371 23.5744C80.556 24.1237 83.2049 19.8663 86.669 19.729C86.669 19.729 84.0879 20.965 84.6313 21.9263C85.0388 22.5444 86.8048 21.1023 89.7255 21.1023C93.3933 21.1023 96.6536 23.3684 98.2158 25.1537C95.6347 24.3984 90.8801 25.7031 89.4538 26.9391C87.2803 25.2911 83.137 25.4971 80.7597 28.3125C77.7711 31.7459 75.9372 35.7286 75.4618 36.9647C74.4429 36.1406 73.492 35.3853 72.8807 34.9046C72.3373 34.4926 71.8619 34.2866 71.3185 34.0806C74.1712 30.0292 79.8767 24.055 86.5331 23.7804ZM46.7306 12.1755C46.3231 7.30002 48.5645 4.62197 49.5833 3.52328C51.8248 1.1199 54.8813 -0.184803 59.5 0.021201C66.6319 0.43321 70.0959 5.37732 70.0959 10.6648C70.0959 13.4802 68.6695 17.1882 66.6319 19.523C66.496 19.3856 66.2922 19.1796 66.2243 19.1109C64.8659 17.8749 62.964 16.2956 61.7414 14.4415C64.1866 10.8021 63.1678 5.17131 58.7529 5.17131C55.968 5.17131 53.7266 8.05538 54.6775 11.5575C54.27 13.1368 54.0662 15.1969 54.3379 16.7076C51.1456 15.0595 50.1267 12.8622 49.5154 10.9394C48.7003 12.5875 48.157 14.8535 48.7683 17.0509C48.9041 17.2569 47.0702 15.6089 46.7306 12.1755ZM48.5645 20.965C48.2249 22.1324 44.0816 23.3684 42.044 25.4284C45.1005 24.8104 46.5268 25.2911 47.0702 26.5958C47.4098 27.5571 46.9344 28.7932 46.7306 30.2352C47.7494 29.0678 51.2135 26.7331 53.7945 26.1838C53.1832 25.9778 51.621 25.6344 51.0097 25.6344C52.8436 23.437 56.919 22.7504 59.1604 23.231C57.734 23.0937 54.8813 23.9864 53.7266 24.8791C54.7454 25.0851 55.6963 25.2911 56.5114 25.6344C55.153 26.1838 53.4549 27.8318 52.8436 29.5485C54.6096 28.3125 58.1416 28.5872 58.7529 31.1965C59.1604 32.9819 57.9378 34.4926 57.3265 34.8359C57.8699 34.9733 59.0925 34.8359 59.5679 34.4926C59.3642 35.248 58.3453 36.484 57.5982 36.69C59.4321 36.69 62.0811 35.454 62.8282 33.6686C62.8282 33.6686 61.6735 34.0806 61.1981 33.5313C60.6547 32.9819 61.4018 30.7159 61.4018 30.7159C61.4018 30.7159 60.6547 31.6772 60.0434 31.1279C59.4321 30.5099 60.2471 28.4498 60.5868 28.0378C59.9755 27.8318 58.3453 27.6258 57.5982 27.6945C59.6358 26.9391 64.2546 26.5271 64.73 27.4885C65.1376 28.2438 64.1187 29.6858 64.1187 29.6858C64.9338 29.5485 67.3111 29.6858 68.1261 30.6472C68.9412 31.6772 68.4658 33.0506 68.4658 33.0506C70.2997 32.0892 71.9298 29.2052 71.5223 26.3211C71.3185 26.9391 70.5034 27.9005 69.6884 28.1065C69.8242 27.1451 69.0771 26.6645 68.4658 26.4584C68.8054 24.6731 68.0582 22.407 65.4772 19.935C63.3037 17.7376 59.2283 14.8535 59.4321 11.0768C58.8208 11.9008 58.2774 14.3042 58.8887 15.6089C60.6547 17.6689 64.3904 19.935 65.3413 23.437C63.7112 19.3169 55.7643 16.0895 56.036 10.4588C55.0171 11.4888 54.4058 15.5402 55.2209 17.6003C56.7831 18.5616 58.0736 20.0723 58.2774 21.5143C56.851 18.2183 51.0097 17.6003 49.3796 13.6862C48.972 15.1282 49.1758 16.9136 49.9909 18.0123C49.9909 18.0123 48.5645 17.4629 45.508 17.6003C46.5948 17.9436 48.7683 19.7976 48.5645 20.965ZM65.0696 25.7031C63.3037 25.7031 62.8282 24.3297 62.4207 22.8877C64.4583 23.7804 65.0696 25.7031 65.0696 25.7031ZM87.3482 52.621C88.5708 53.7884 91.5594 54.6124 93.0537 53.857C92.1028 55.5051 87.8236 57.7711 83.8841 56.7411C80.0805 55.7111 78.3824 52.0717 78.3824 49.7369C76.5485 51.591 77.024 54.475 78.3824 55.7111C76.9561 55.2991 74.7146 53.7197 74.3071 50.973C73.9675 48.5696 75.3259 45.8229 72.8807 43.6255C71.4543 42.2521 69.0771 40.3981 67.6507 39.2994C64.5942 36.896 65.6809 35.042 65.0696 33.8059C64.5263 32.7759 63.2357 32.2266 62.4886 31.3339C61.6735 30.3725 61.7414 29.0678 62.149 28.3125C62.0131 29.3425 62.7603 30.1665 63.7791 30.5785C64.9338 30.9905 65.8168 30.7159 66.8356 31.1965C67.9903 31.9519 67.4469 33.6686 68.262 34.4239C69.0091 34.9733 70.911 34.2179 72.4732 35.5913C74.1033 36.9647 77.7032 39.9174 79.1975 41.1534C81.9823 43.4195 84.8351 40.8101 83.8841 38.132C86.7369 39.7801 87.0765 44.5182 84.6992 46.1662C86.9406 46.7155 90.9481 45.6169 90.9481 42.4581C90.9481 40.4667 89.1142 39.0247 87.8916 38.8187C92.5103 38.4067 96.4498 41.6341 96.4498 45.7542C96.3139 49.9429 92.1028 53.239 87.3482 52.621ZM72.1336 44.1748C72.2694 44.3122 72.3373 44.3808 72.4732 44.5182C70.028 49.5996 65.4093 56.0544 56.6473 56.0544C53.4549 56.0544 50.6022 54.887 48.5645 53.3763C47.8174 52.827 47.206 52.209 46.7306 51.5223C46.391 51.1103 46.1193 50.767 45.7797 50.355C45.3721 49.8056 45.0325 49.8056 44.8288 50.149C44.4212 50.767 45.1684 52.7583 45.1684 52.7583C38.2403 46.1662 41.7723 36.484 41.9081 36.072C42.3156 34.836 41.9081 34.6299 41.5006 34.8359C40.8893 35.042 40.1421 36.072 40.1421 36.072C40.6855 30.1665 46.0514 26.5958 46.0514 26.5958L46.1872 26.7331C46.7985 27.6945 45.8476 28.7932 45.7797 32.5012C46.7985 31.0592 50.8059 28.2438 53.0474 27.4198C52.3002 28.3812 51.6889 29.6858 51.6889 31.6772C51.6889 31.6772 53.3191 29.8232 55.3567 29.8232C55.9001 29.8232 56.3756 29.9605 56.7831 30.1665C49.04 37.7887 52.3002 47.2649 58.8208 47.2649C62.4886 47.2649 66.1564 43.1448 67.7186 40.3294C68.8733 41.3594 70.7751 43.0075 72.1336 44.1748Z" fill="#E40712"/>
</svg>
