<svg width="39" height="57" viewBox="0 0 39 57" fill="none" xmlns="http://www.w3.org/2000/svg">
<g clip-path="url(#clip0_21_581)">
<path d="M19.2922 28.5C19.2922 25.9804 20.2931 23.5641 22.0747 21.7825C23.8563 20.0009 26.2727 19 28.7922 19C31.3118 19 33.7282 20.0009 35.5098 21.7825C37.2913 23.5641 38.2922 25.9804 38.2922 28.5C38.2922 31.0196 37.2913 33.4359 35.5098 35.2175C33.7282 36.9991 31.3118 38 28.7922 38C26.2727 38 23.8563 36.9991 22.0747 35.2175C20.2931 33.4359 19.2922 31.0196 19.2922 28.5Z" fill="#1ABCFE"/>
<path d="M0.292236 47.5C0.292236 44.9804 1.29313 42.5641 3.07472 40.7825C4.85632 39.0009 7.27268 38 9.79224 38H19.2922V47.5C19.2922 50.0196 18.2913 52.4359 16.5098 54.2175C14.7282 55.9991 12.3118 57 9.79224 57C7.27268 57 4.85632 55.9991 3.07472 54.2175C1.29313 52.4359 0.292236 50.0196 0.292236 47.5H0.292236Z" fill="#0ACF83"/>
<path d="M19.2922 0V19H28.7922C31.3118 19 33.7282 17.9991 35.5098 16.2175C37.2913 14.4359 38.2922 12.0196 38.2922 9.5C38.2922 6.98044 37.2913 4.56408 35.5098 2.78249C33.7282 1.00089 31.3118 0 28.7922 0L19.2922 0Z" fill="#FF7262"/>
<path d="M0.292236 9.5C0.292236 12.0196 1.29313 14.4359 3.07472 16.2175C4.85632 17.9991 7.27268 19 9.79224 19H19.2922V0H9.79224C7.27268 0 4.85632 1.00089 3.07472 2.78249C1.29313 4.56408 0.292236 6.98044 0.292236 9.5H0.292236Z" fill="#F24E1E"/>
<path d="M0.292236 28.5C0.292236 31.0196 1.29313 33.4359 3.07472 35.2175C4.85632 36.9991 7.27268 38 9.79224 38H19.2922V19H9.79224C7.27268 19 4.85632 20.0009 3.07472 21.7825C1.29313 23.5641 0.292236 25.9804 0.292236 28.5H0.292236Z" fill="#A259FF"/>
</g>
<defs>
<clipPath id="clip0_21_581">
<rect width="38" height="57" fill="white" transform="translate(0.292236)"/>
</clipPath>
</defs>
</svg>
