<svg width="56" height="56" viewBox="0 0 56 56" fill="none" xmlns="http://www.w3.org/2000/svg">
<path d="M54.7149 25.3102L30.3667 1.09078C30.0332 0.758976 29.6374 0.49577 29.2017 0.316193C28.766 0.136617 28.299 0.0441895 27.8274 0.0441895C27.3558 0.0441895 26.8888 0.136617 26.4531 0.316193C26.0174 0.49577 25.6215 0.758976 25.2881 1.09078L20.2322 6.11982L26.6446 12.5014C27.3985 12.2457 28.2093 12.2053 28.985 12.3848C29.7608 12.5642 30.4705 12.9564 31.0336 13.5167C31.5994 14.0806 31.9945 14.7914 32.1737 15.5679C32.3528 16.3445 32.3089 17.1555 32.0469 17.9084L38.228 24.0593C38.9846 23.7976 39.8001 23.7534 40.5809 23.9318C41.3616 24.1102 42.076 24.504 42.642 25.0679C43.0393 25.4623 43.3544 25.9308 43.5694 26.4465C43.7844 26.9622 43.8951 27.515 43.8951 28.0733C43.8951 28.6317 43.7844 29.1845 43.5694 29.7002C43.3544 30.2159 43.0393 30.6844 42.642 31.0788C42.2454 31.474 41.7742 31.7876 41.2556 32.0015C40.737 32.2154 40.1811 32.3256 39.6197 32.3256C39.0583 32.3256 38.5024 32.2154 37.9837 32.0015C37.4651 31.7876 36.994 31.474 36.5974 31.0788C36.0015 30.4853 35.5953 29.7299 35.43 28.9074C35.2646 28.0849 35.3474 27.2321 35.6679 26.4563L29.9029 20.7212V35.8126C30.3213 36.0172 30.7033 36.2886 31.0336 36.6161C31.835 37.4137 32.2852 38.4953 32.2852 39.623C32.2852 40.7508 31.835 41.8324 31.0336 42.63C29.3632 44.2893 26.6569 44.2893 24.9914 42.63C24.594 42.2354 24.2787 41.7667 24.0636 41.2507C23.8485 40.7347 23.7378 40.1816 23.7378 39.623C23.7378 39.0645 23.8485 38.5114 24.0636 37.9954C24.2787 37.4794 24.594 37.0107 24.9914 36.6161C25.3902 36.2169 25.8657 35.9016 26.3895 35.689V20.457C25.8657 20.2444 25.3902 19.9292 24.9914 19.53C24.3914 18.9336 23.9834 18.1731 23.8191 17.3453C23.6548 16.5176 23.7417 15.6599 24.0687 14.8814L17.7468 8.58991L1.05187 25.1982C0.718242 25.5299 0.453585 25.9237 0.273018 26.3572C0.0924506 26.7907 -0.000488281 27.2553 -0.000488281 27.7246C-0.000488281 28.1938 0.0924506 28.6584 0.273018 29.0919C0.453585 29.5254 0.718242 29.9193 1.05187 30.251L25.4001 54.4728C25.7335 54.8046 26.1294 55.0678 26.5651 55.2474C27.0008 55.4269 27.4678 55.5194 27.9394 55.5194C28.411 55.5194 28.878 55.4269 29.3137 55.2474C29.7493 55.0678 30.1452 54.8046 30.4786 54.4728L54.7149 30.3654C55.3887 29.695 55.7672 28.7858 55.7672 27.8378C55.7672 26.8898 55.3887 25.9806 54.7149 25.3102Z" fill="#F03C2E"/>
</svg>
