<svg width="57" height="55" viewBox="0 0 57 55" fill="none" xmlns="http://www.w3.org/2000/svg">
<path d="M28.2922 0C12.8316 0 0.292236 12.6244 0.292236 28.1952C0.292236 40.6528 8.31424 51.2213 19.4419 54.9501C20.8396 55.2109 21.2922 54.3369 21.2922 53.5944V48.3454C13.5036 50.0512 11.8819 45.0184 11.8819 45.0184C10.6079 41.7595 8.77157 40.8925 8.77157 40.8925C6.23057 39.142 8.96524 39.1796 8.96524 39.1796C11.7769 39.377 13.2562 42.0861 13.2562 42.0861C15.7529 46.3952 19.8059 45.1499 21.4042 44.4286C21.6539 42.6077 22.3796 41.3624 23.1822 40.6598C16.9639 39.9432 10.4259 37.5255 10.4259 26.7244C10.4259 23.644 11.5202 21.13 13.3099 19.1563C13.0206 18.4444 12.0616 15.5755 13.5829 11.694C13.5829 11.694 15.9349 10.9374 21.2852 14.584C23.5182 13.959 25.9122 13.6465 28.2922 13.6347C30.6722 13.6465 33.0686 13.959 35.3062 14.584C40.6519 10.9374 42.9992 11.694 42.9992 11.694C44.5229 15.5779 43.5639 18.4467 43.2746 19.1563C45.0712 21.13 46.1562 23.6464 46.1562 26.7244C46.1562 37.5537 39.6066 39.9385 33.3719 40.6363C34.3752 41.5104 35.2922 43.2256 35.2922 45.8572V53.5944C35.2922 54.3439 35.7402 55.225 37.1612 54.9478C48.2796 51.2142 56.2922 40.6481 56.2922 28.1952C56.2922 12.6244 43.7552 0 28.2922 0Z" fill="black"/>
</svg>
