<svg width="59" height="56" viewBox="0 0 59 56" fill="none" xmlns="http://www.w3.org/2000/svg">
<path d="M2.70435 2.39319H55.7718V53.6069H2.70435V2.39319Z" fill="#261300"/>
<path d="M0.292236 0V56H58.184V0H0.292236ZM2.70439 2.39316H55.7718V53.6068H2.70439V2.39316Z" fill="#FF7C00"/>
<path d="M20.3855 31.7094L18.4799 38.8889C18.4317 39.0803 18.3593 39.1282 18.1181 39.1282H14.5722C14.331 39.1282 14.2828 39.0564 14.331 38.7692L21.1815 14.9812C21.3021 14.5504 21.3745 14.1675 21.4228 12.9949C21.4228 12.8273 21.4951 12.7555 21.6157 12.7555H26.6813C26.8501 12.7555 26.9225 12.8034 26.9707 12.9949L34.6414 38.8171C34.6896 39.0085 34.6414 39.1282 34.4484 39.1282H30.4442C30.2512 39.1282 30.1306 39.0803 30.0824 38.9128L28.0803 31.7094H20.3855ZM27.0913 27.8325C26.4159 25.176 24.8239 19.3846 24.2209 16.5846H24.1726C23.6661 19.3846 22.3876 24.1231 21.3745 27.8325H27.0913ZM37.946 14.5265C37.946 12.9949 39.0315 12.0854 40.4064 12.0854C41.8778 12.0854 42.8668 13.0666 42.8668 14.5265C42.8668 16.106 41.8296 16.9675 40.3582 16.9675C38.9591 16.9675 37.946 16.106 37.946 14.5265ZM38.2355 19.959C38.2355 19.7675 38.3078 19.6718 38.5249 19.6718H42.312C42.505 19.6718 42.6015 19.7436 42.6015 19.959V38.841C42.6015 39.0325 42.5532 39.1282 42.312 39.1282H38.5732C38.332 39.1282 38.2596 39.0085 38.2596 38.8171V19.959H38.2355Z" fill="#FF7C00"/>
</svg>
