<svg width="60" height="60" viewBox="0 0 60 60" fill="none" xmlns="http://www.w3.org/2000/svg">
<path d="M59.814 30.1062C59.814 46.4988 46.5252 59.7876 30.1326 59.7876C13.74 59.7876 0.451172 46.4988 0.451172 30.1062C0.451172 13.7136 13.74 0.424805 30.1326 0.424805C46.5252 0.424805 59.814 13.7136 59.814 30.1062Z" fill="#4E7896"/>
<path d="M23.4828 42.5083C23.4828 42.5083 21.5462 43.6761 24.8308 44.0107C28.7762 44.5104 30.8914 44.4279 35.2686 43.5936C35.2686 43.5936 36.4468 44.3431 38.0469 44.9298C28.1976 49.1013 15.7399 44.6799 23.4839 42.5105L23.4828 42.5083ZM22.2203 37.0853C22.2203 37.0853 20.116 38.6714 23.3984 39.0049C27.6912 39.4221 31.0701 39.5046 36.8676 38.3379C36.8676 38.3379 37.6238 39.1722 38.8875 39.5893C27.0183 43.0939 13.7179 39.9218 22.2203 37.0853ZM45.4544 46.5973C45.4544 46.5973 46.8857 47.7651 43.8543 48.683C38.2146 50.3517 20.2004 50.8525 15.1492 48.683C13.3814 47.9335 16.7493 46.8363 17.843 46.6809C18.939 46.4311 19.5264 46.4311 19.5264 46.4311C17.591 45.0949 6.64679 49.1849 13.9699 50.3419C34.0883 53.5954 50.6711 48.9231 45.4522 46.5875L45.4544 46.5973ZM24.4078 31.4114C24.4078 31.4114 15.2325 33.5808 21.1243 34.3315C23.6494 34.665 28.6162 34.5813 33.2455 34.2478C37.0331 33.9143 40.8218 33.2462 40.8218 33.2462C40.8218 33.2462 39.4738 33.8307 38.5488 34.414C29.2047 36.8333 11.275 35.7502 16.4106 33.2462C20.7878 31.1605 24.4078 31.3995 24.4078 31.3995V31.4114ZM40.8229 40.5062C50.2503 35.6666 45.8731 30.9943 42.8428 31.5787C42.0865 31.746 41.7468 31.9122 41.7468 31.9122C41.7468 31.9122 41.9989 31.4125 42.5885 31.2452C48.5647 29.1595 53.2795 37.5025 40.652 40.7572C40.652 40.7572 40.7363 40.6735 40.8207 40.5073L40.8229 40.5062ZM25.3349 53.6889C34.4259 54.2733 48.317 53.3554 48.6524 49.1002C48.6524 49.1002 47.9795 50.7688 41.1605 52.0203C33.4165 53.439 23.8203 53.2717 18.1784 52.3538C18.1784 52.3538 19.3565 53.3543 25.3349 53.6889Z" fill="#EEEBDF"/>
<path d="M35.0988 3.87614C35.0988 3.87614 40.3177 9.13399 30.1319 17.0599C21.9671 23.4845 28.2688 27.1563 30.1319 31.3278C25.3339 27.0726 21.8827 23.3183 24.239 19.8127C27.6912 14.6395 37.203 12.1366 35.0988 3.87614ZM32.4049 27.8233C34.8456 30.5771 31.7309 33.0811 31.7309 33.0811C31.7309 33.0811 37.9603 29.909 35.0977 25.9874C32.4893 22.233 30.4684 20.3971 41.4104 14.1387C41.4104 14.1387 24.1535 18.3939 32.4038 27.8222L32.4049 27.8233Z" fill="#F58219"/>
</svg>
