<svg width="66" height="63" viewBox="0 0 66 63" fill="none" xmlns="http://www.w3.org/2000/svg">
<path d="M65.862 54.0058C65.862 58.7838 61.8061 62.6553 56.8007 62.6553H9.68191C4.67826 62.6553 0.620605 58.7838 0.620605 54.0058V9.02882C0.620605 4.25088 4.67826 0.379395 9.68191 0.379395H56.8007C61.8061 0.379395 65.862 4.25088 65.862 9.02882V54.0058Z" fill="#0078D4"/>
<path d="M11.7412 24.0417H20.6995V54.5H11.7412V24.0417ZM16.1935 20.4583H16.1433C13.4702 20.4583 11.7412 18.466 11.7412 15.9774C11.7412 13.435 13.5239 11.5 16.2455 11.5C18.9706 11.5 20.6494 13.435 20.6995 15.9774C20.6995 18.4642 18.9706 20.4583 16.1935 20.4583ZM54.7412 54.5H45.7829V38.1976C45.7829 34.2595 43.5881 31.572 40.0639 31.572C37.3746 31.572 35.9198 33.3852 35.2138 35.1375C34.9558 35.7645 35.0329 37.4989 35.0329 38.375V54.5H26.0745V24.0417H35.0329V28.7287C36.3247 26.7292 38.3475 24.0417 43.5218 24.0417C49.9324 24.0417 54.7394 28.0729 54.7394 37.0743L54.7412 54.5Z" fill="#EEEBDF"/>
</svg>
