<svg width="57" height="58" viewBox="0 0 57 58" fill="none" xmlns="http://www.w3.org/2000/svg">
<g clip-path="url(#clip0_34_668)">
<path d="M25.5518 39.0816H22.6035L18.6725 35.0987H16.7069L12.7759 39.0816H9.82764L10.147 38.1124L10.8104 36.0944L11.7063 33.3712L12.7759 30.1202H22.6035L25.5518 39.0816Z" fill="#262D43"/>
<path d="M14.7414 29.1245V33.1073L14.0747 34.1212L12.7759 36.0944H7.86206L9.11016 33.1455L10.8103 29.1245H14.7414Z" fill="#396795"/>
<path d="M12.9068 36.3434H7.48853L10.6465 28.8755H14.987V33.182L12.9068 36.3434ZM8.23542 35.8455H12.6447L14.4956 33.0326V29.3734H10.974L8.23542 35.8455Z" fill="#0F4D7F"/>
<path d="M20.6379 29.1245V33.1073L21.3046 34.1212L22.6035 36.0944H27.5173L26.2691 33.1455L24.569 29.1245H20.6379Z" fill="#396795"/>
<path d="M27.8908 36.3434H22.4725L20.3923 33.182V28.8755H24.7329L27.8908 36.3434ZM22.7346 35.8455H27.1439L24.4053 29.3734H20.8837V33.0326L22.7346 35.8455Z" fill="#0F4D7F"/>
<path d="M15.5488 38.6285L13.6406 39.1114L12.6873 39.352C12.5797 38.9194 12.3777 38.5168 12.0964 38.1736C11.815 37.8305 11.4613 37.5555 11.0614 37.369C10.6614 37.1824 10.2253 37.089 9.785 37.0956C9.34473 37.1022 8.91151 37.2086 8.51715 37.4071L8.07819 36.5159L7.19043 34.7336C7.98005 34.3343 8.84806 34.1196 9.73046 34.1055C10.6129 34.0913 11.4871 34.278 12.2888 34.6518C13.0905 35.0256 13.7992 35.577 14.3625 36.2652C14.9259 36.9535 15.3296 37.7611 15.5439 38.6285H15.5488Z" fill="#396795"/>
<path d="M13.1427 40.1652L12.2074 39.2176L12.3712 39.1744C12.1866 38.6396 11.8429 38.1758 11.3873 37.8471C10.9317 37.5184 10.3868 37.3409 9.82752 37.339C9.40934 37.3392 8.99701 37.4386 8.62364 37.6294L8.40252 37.7406L6.8645 34.6224L7.08398 34.5112C7.90682 34.0945 8.81151 33.8703 9.7313 33.8552C10.6511 33.8401 11.5625 34.0344 12.3982 34.4239C13.234 34.8133 13.9727 35.3879 14.56 36.1053C15.1472 36.8227 15.568 37.6646 15.7912 38.5687L15.8502 38.8094L12.9887 39.5329L13.1427 40.1652ZM9.82752 36.8412C10.4977 36.841 11.1509 37.0545 11.6945 37.4516C12.2381 37.8487 12.6445 38.4091 12.8561 39.0533L15.2458 38.4492C15.0167 37.6676 14.6256 36.9445 14.0985 36.3284C13.5714 35.7122 12.9205 35.2172 12.1894 34.8765C11.4583 34.5357 10.6638 34.357 9.85902 34.3524C9.05427 34.3478 8.25782 34.5174 7.52295 34.8498L8.62364 37.0801C9.00602 36.9227 9.41479 36.8416 9.82752 36.8412Z" fill="#0F4D7F"/>
<path d="M19.8303 38.6285L21.7385 39.1114L22.6918 39.352C22.799 38.9182 23.0009 38.5143 23.2827 38.1701C23.5646 37.8259 23.9191 37.5502 24.3201 37.3633C24.7212 37.1765 25.1585 37.0833 25.5999 37.0906C26.0412 37.0978 26.4753 37.2054 26.8701 37.4054L27.3091 36.5143L28.1887 34.7319C27.3991 34.3326 26.5311 34.118 25.6487 34.1038C24.7663 34.0897 23.892 34.2764 23.0903 34.6502C22.2886 35.024 21.5799 35.5753 21.0166 36.2636C20.4532 36.9518 20.0495 37.7594 19.8352 38.6268L19.8303 38.6285Z" fill="#396795"/>
<path d="M22.2381 40.1652L22.3937 39.5329L19.5322 38.8094L19.5912 38.5687C19.8144 37.6646 20.2352 36.8227 20.8224 36.1053C21.4097 35.3879 22.1485 34.8133 22.9842 34.4239C23.8199 34.0344 24.7313 33.8401 25.6511 33.8552C26.5709 33.8703 27.4756 34.0945 28.2984 34.5112L28.5196 34.6224L26.9799 37.7406L26.7588 37.6294C26.3844 37.4381 25.9709 37.3386 25.5516 37.339C24.9912 37.3395 24.4448 37.5164 23.988 37.8452C23.5311 38.174 23.1864 38.6385 23.0014 39.1744L23.1652 39.2176L22.2381 40.1652ZM20.1333 38.4492L22.5231 39.0533C22.7347 38.4091 23.1411 37.8487 23.6847 37.4516C24.2283 37.0545 24.8815 36.841 25.5516 36.8412C25.9627 36.8422 26.3698 36.9233 26.7506 37.0801L27.8513 34.8498C27.1164 34.5174 26.32 34.3478 25.5152 34.3524C24.7105 34.357 23.9159 34.5357 23.1848 34.8765C22.4537 35.2172 21.8028 35.7122 21.2757 36.3284C20.7487 36.9445 20.3575 37.6676 20.1284 38.4492H20.1333Z" fill="#0F4D7F"/>
<path d="M28.4999 7.21887H8.84473V25.1416H28.4999V7.21887Z" fill="#26507A"/>
<path d="M56.0173 0.248901L53.5604 1.27116C51.8989 1.95803 50.524 3.20749 49.6701 4.80652C48.8162 6.40555 48.5361 8.25516 48.8775 10.04L49.0151 10.7553L49.7211 10.6175C51.4818 10.2721 53.07 9.31895 54.215 7.92039C55.3601 6.52182 55.9912 4.76435 56.0009 2.94727L56.0173 0.248901Z" fill="#AD7D4D"/>
<path d="M51.9093 10.1828C51.241 11.3046 50.5656 12.4264 49.8831 13.5483C48.8119 15.304 47.7238 17.0487 46.6187 18.7824C43.6552 23.429 40.5748 27.9954 37.3775 32.4816C32.2235 39.7005 26.7796 46.6937 21.0457 53.4612L18.6724 56.2575L28.2035 39.5645C31.8495 33.182 35.7101 26.9361 39.7853 20.8269L42.8466 16.235L46.2862 11.0905L48.4598 7.83124L51.9093 10.1828Z" fill="#2F4054"/>
<path d="M18.8591 56.4201L18.4595 56.133L27.9906 39.44C31.6219 33.0841 35.5251 26.7713 39.5822 20.6875L48.3878 7.47943L52.2402 10.1147L52.1206 10.3172C51.4654 11.4258 50.7808 12.5592 50.0912 13.686C49.0396 15.4102 47.9406 17.171 46.8252 18.9234C43.8769 23.5502 40.7648 28.1619 37.5774 32.6327C32.4458 39.825 26.9472 46.8896 21.2325 53.6305L18.8591 56.4201ZM48.5204 8.16315L39.9901 20.9597C35.9346 27.0418 32.0412 33.3429 28.4165 39.6889L20.2055 54.0686L20.8607 53.2986C26.5672 46.5693 32.0576 39.5163 37.1794 32.3356C40.3635 27.8715 43.469 23.2664 46.414 18.648C47.5278 16.8988 48.6252 15.1397 49.6752 13.4172C50.3205 12.3617 50.9609 11.2996 51.5801 10.2641L48.5204 8.16315Z" fill="#212D3A"/>
<path d="M40.5027 15.9695C40.656 15.7386 40.8529 15.5407 41.082 15.3871C41.311 15.2335 41.5678 15.1273 41.8375 15.0746C42.1072 15.0219 42.3845 15.0236 42.6535 15.0798C42.9226 15.136 43.178 15.2455 43.4051 15.402L46.8612 17.7668C47.3195 18.0804 47.636 18.5656 47.7412 19.1156C47.8464 19.6657 47.7317 20.2356 47.4221 20.7C47.1126 21.1643 46.6337 21.485 46.0908 21.5916C45.5479 21.6982 44.9854 21.5819 44.5271 21.2683L41.0711 18.9035C40.612 18.5905 40.2944 18.1058 40.1878 17.5557C40.0812 17.0056 40.1945 16.4351 40.5027 15.9695Z" fill="#EEBE33"/>
<path d="M42.8367 12.4696C43.1463 12.0056 43.6251 11.6851 44.1678 11.5787C44.7106 11.4723 45.2728 11.5886 45.7309 11.902L49.187 14.2668C49.6308 14.5864 49.9336 15.0691 50.0308 15.6119C50.1279 16.1547 50.0117 16.7145 49.7068 17.1716C49.402 17.6287 48.9328 17.9468 48.3995 18.0581C47.8662 18.1693 47.3111 18.0647 46.8529 17.7667L43.4051 15.4019C43.1777 15.2472 42.9826 15.0487 42.8309 14.8176C42.6793 14.5865 42.574 14.3274 42.5213 14.0551C42.4685 13.7827 42.4692 13.5026 42.5233 13.2305C42.5774 12.9585 42.6839 12.6999 42.8367 12.4696Z" fill="#2F4054"/>
<path d="M48.0142 18.3791C47.5511 18.3785 47.0987 18.2375 46.7154 17.9742L43.2593 15.6094C42.8774 15.3479 42.5807 14.9776 42.4065 14.5452C42.2323 14.1129 42.1886 13.6379 42.2808 13.1804C42.373 12.7228 42.597 12.3033 42.9245 11.9747C43.2521 11.6461 43.6684 11.4234 44.1209 11.3345C44.4205 11.2757 44.7287 11.2777 45.0275 11.3403C45.3264 11.403 45.61 11.5251 45.862 11.6996L49.318 14.0644C49.7282 14.3495 50.0377 14.7599 50.2015 15.2358C50.3652 15.7117 50.3746 16.2281 50.2284 16.7098C50.0821 17.1915 49.7877 17.6132 49.3883 17.9135C48.9888 18.2138 48.5051 18.3769 48.0077 18.3791H48.0142ZM44.5746 11.7875C44.2723 11.7886 43.9749 11.8649 43.7085 12.0095C43.442 12.1542 43.2147 12.3629 43.0464 12.6173C42.774 13.0267 42.6727 13.5288 42.7648 14.0137C42.8569 14.4986 43.1348 14.9267 43.5378 15.2045L46.9938 17.5693C47.3981 17.8371 47.8902 17.933 48.3637 17.8363C48.8372 17.7396 49.2542 17.4581 49.5245 17.0525C49.7949 16.6469 49.897 16.1499 49.8087 15.6688C49.7204 15.1876 49.4489 14.7609 49.0527 14.4809L45.5967 12.1161C45.2944 11.9038 44.9358 11.7892 44.568 11.7875H44.5746Z" fill="#212D3A"/>
<path d="M10.8103 25.1416H24.5689V29.1244H10.8103V25.1416ZM14.9051 0.248904H21.4569C22.3626 0.247872 23.2456 0.535893 23.9807 1.07209C24.7157 1.60829 25.2654 2.36542 25.5517 3.23603V8.21457H10.8103V3.23603C11.0966 2.36542 11.6463 1.60829 12.3813 1.07209C13.1164 0.535893 13.9994 0.247872 14.9051 0.248904Z" fill="#2F4054"/>
<path d="M24.8147 29.3734H10.5647V24.8927H24.8147V29.3734ZM11.0561 28.8756H24.3233V25.3906H11.0561V28.8756ZM25.7975 8.46355H10.5647V3.19625L10.5778 3.15808C10.8805 2.23905 11.4611 1.43989 12.2372 0.873943C13.0134 0.307994 13.9457 0.00397741 14.9019 0.00500749H21.4569C22.4128 0.00482801 23.3445 0.309201 24.1202 0.875055C24.8959 1.44091 25.4764 2.23959 25.7794 3.15808L25.7925 3.19625L25.7975 8.46355ZM11.0561 7.96569H25.3061V3.27757C25.0301 2.46582 24.5108 1.76163 23.8208 1.26331C23.1307 0.76498 22.3043 0.497388 21.4569 0.497883H14.9052C14.0578 0.497388 13.2314 0.76498 12.5414 1.26331C11.8513 1.76163 11.3321 2.46582 11.0561 3.27757V7.96569Z" fill="#212D3A"/>
<path d="M13.7587 51.03V54.0171H1.96558V50.0343L2.94833 49.0386L6.87937 44.0601L12.7759 45.0558L13.7587 51.03Z" fill="#396795"/>
<path d="M14.0042 54.2661H1.71973V49.9315L2.76473 48.8727L6.77766 43.7913L12.9887 44.8401L14.0042 51.0301V54.2661ZM2.21111 53.7683H13.5128V51.05L12.5628 45.2715L6.98076 44.3289L3.1218 49.2145L2.21111 50.1372V53.7683Z" fill="#0F4D7F"/>
<path d="M21.6206 51.03V54.0171H33.4137V50.0343L32.431 49.0386L28.4999 44.0601L22.6034 45.0558L21.6206 51.03Z" fill="#396795"/>
<path d="M33.6595 54.2661H21.375V50.9886L22.3872 44.8401L28.5983 43.7913L32.6145 48.8727L33.6595 49.9315V54.2661ZM21.8664 53.7683H33.1681V50.1372L32.2394 49.1946L28.3984 44.3289L22.8164 45.2715L21.8664 51.05V53.7683Z" fill="#0F4D7F"/>
<path d="M27.5172 38.0858L32.431 46.0515V49.0386L30.8586 48.242C29.6075 47.6083 28.1592 47.504 26.8322 47.9522C25.5053 48.4003 24.4083 49.3642 23.7828 50.6317L23.5862 51.03H21.6207L20.6379 42.0686L21.6207 39.0815L27.5172 38.0858Z" fill="#396795"/>
<path d="M23.7384 51.279H21.4011L20.3872 42.0421L21.4338 38.8608L27.6383 37.8137L32.6766 45.9801V49.4419L30.7488 48.4644C30.1581 48.1652 29.5151 47.9867 28.8564 47.9393C28.1976 47.8918 27.5361 47.9763 26.9097 48.1879C26.2832 48.3995 25.7039 48.734 25.2051 49.1724C24.7062 49.6108 24.2974 50.1445 24.0021 50.7429L23.7384 51.279ZM21.8401 50.7811H23.4338L23.5632 50.5206C24.2179 49.1941 25.3658 48.1854 26.7545 47.7164C28.1432 47.2474 29.6589 47.3565 30.9682 48.0197L32.1852 48.6353V46.1228L27.3959 38.358L21.8073 39.3022L20.8884 42.0952L21.8401 50.7811Z" fill="#0F4D7F"/>
<path d="M22.6035 40.0772C22.6035 40.8695 22.9141 41.6293 23.467 42.1894C24.02 42.7496 24.7699 43.0644 25.5518 43.0644C26.3337 43.0644 27.0836 42.7496 27.6365 42.1894C28.1894 41.6293 28.5001 40.8695 28.5001 40.0772C28.4993 39.9104 28.4857 39.744 28.4591 39.5794C28.3456 38.9032 28.0059 38.2871 27.4971 37.8348C26.9882 37.3824 26.3412 37.1212 25.6647 37.0951C24.9882 37.069 24.3234 37.2796 23.7821 37.6915C23.2408 38.1034 22.8558 38.6915 22.692 39.357C22.6739 39.4317 22.6576 39.5064 22.6445 39.5827C22.6179 39.7462 22.6042 39.9115 22.6035 40.0772Z" fill="#396795"/>
<path d="M22.6035 40.0773C22.6035 40.8695 22.9141 41.6293 23.467 42.1895C24.02 42.7497 24.7699 43.0644 25.5518 43.0644C26.3337 43.0644 27.0836 42.7497 27.6365 42.1895C28.1894 41.6293 28.5001 40.8695 28.5001 40.0773C28.4993 39.9105 28.4857 39.744 28.4591 39.5794C28.3434 40.2758 27.9878 40.9082 27.4556 41.3642C26.9233 41.8202 26.2488 42.0704 25.5518 42.0704C24.8548 42.0704 24.1803 41.8202 23.648 41.3642C23.1158 40.9082 22.7602 40.2758 22.6445 39.5794C22.6178 39.744 22.6041 39.9105 22.6035 40.0773Z" fill="#26507A"/>
<path d="M22.6035 40.0773C22.6029 40.8379 22.8886 41.5701 23.4025 42.1246C23.9164 42.6791 24.6197 43.0141 25.369 43.0613C26.1182 43.1085 26.8571 42.8642 27.4347 42.3785C28.0124 41.8927 28.3854 41.2019 28.4777 40.4471C28.57 39.6922 28.3746 38.9301 27.9313 38.3162C27.4881 37.7023 26.8304 37.2829 26.0924 37.1434C25.3544 37.004 24.5916 37.155 23.9598 37.5657C23.3279 37.9764 22.8745 38.6159 22.692 39.3537C22.6331 39.5903 22.6033 39.8333 22.6035 40.0773Z" fill="#396795"/>
<path d="M25.5516 43.3133C25.3871 43.3138 25.2228 43.3011 25.0603 43.2751C24.3072 43.1567 23.6208 42.7692 23.1251 42.1827C22.6295 41.5962 22.3572 40.8494 22.3577 40.0772C22.3577 39.219 22.6942 38.3959 23.2932 37.789C23.8921 37.1821 24.7045 36.8412 25.5516 36.8412C26.1807 36.8413 26.7957 37.0291 27.32 37.3812C27.8444 37.7333 28.2547 38.2341 28.4999 38.821C28.7055 39.3133 28.7873 39.8495 28.7382 40.3817C28.6891 40.9139 28.5104 41.4255 28.2183 41.8706C27.9262 42.3157 27.5297 42.6804 27.0643 42.9322C26.5989 43.184 26.0792 43.3149 25.5516 43.3133ZM25.5516 37.339C24.9493 37.3402 24.3645 37.5448 23.8899 37.9205C23.4152 38.2962 23.0778 38.8216 22.9309 39.4134C22.878 39.6306 22.851 39.8535 22.8507 40.0772C22.851 40.6184 23.0097 41.1473 23.3067 41.5971C23.6037 42.0469 24.0256 42.3974 24.5192 42.6043C25.0127 42.8112 25.5557 42.8651 26.0796 42.7593C26.6034 42.6536 27.0845 42.3928 27.4621 42.01C27.8396 41.6272 28.0967 41.1396 28.2008 40.6088C28.3049 40.0781 28.2513 39.5279 28.0468 39.028C27.8423 38.528 27.4962 38.1007 27.052 37.8001C26.6079 37.4995 26.0858 37.339 25.5516 37.339Z" fill="#0F4D7F"/>
<path d="M19.367 35.3908C18.922 35.8411 18.3187 36.0941 17.6897 36.0941C17.0608 36.0941 16.4575 35.8411 16.0125 35.3908C15.609 34.982 15.289 34.4966 15.0709 33.9624C14.8528 33.4282 14.7409 32.8556 14.7415 32.2775V29.1245H20.638V32.2775C20.6386 32.8556 20.5266 33.4282 20.3085 33.9624C20.0904 34.4966 19.7705 34.982 19.367 35.3908Z" fill="#396795"/>
<path d="M17.6896 36.3434C16.9958 36.3412 16.3308 36.0622 15.8387 35.5667C15.4111 35.1358 15.0722 34.6232 14.8416 34.0586C14.6111 33.494 14.4935 32.8886 14.4956 32.2776V28.8755H20.8836V32.2776C20.8851 32.8878 20.7672 33.4922 20.5366 34.0559C20.3061 34.6196 19.9675 35.1315 19.5405 35.5617C19.0492 36.059 18.3841 36.3399 17.6896 36.3434ZM14.987 29.3734V32.2776C14.9856 32.8224 15.0908 33.3621 15.2966 33.8654C15.5024 34.3687 15.8047 34.8257 16.186 35.2099C16.5851 35.6132 17.1259 35.8397 17.6896 35.8397C18.2533 35.8397 18.7941 35.6132 19.1932 35.2099C19.5745 34.8257 19.8768 34.3687 20.0826 33.8654C20.2884 33.3621 20.3936 32.8224 20.3922 32.2776V29.3734H14.987Z" fill="#0F4D7F"/>
<path d="M35.3793 58H0L0.982759 54.0172H34.3966L35.3793 58Z" fill="#2F4054"/>
<path d="M35.3793 17.176V20.8053C35.3795 21.3748 35.269 21.9388 35.054 22.465C34.8389 22.9912 34.5237 23.4693 34.1262 23.872C33.7288 24.2747 33.2569 24.5941 32.7375 24.812C32.2181 25.0298 31.6615 25.1418 31.0994 25.1416H28.5V17.176H35.3793Z" fill="#396795"/>
<path d="M31.0995 25.3906H28.2544V16.9271H35.6251V20.8053C35.6253 21.4075 35.5084 22.0039 35.281 22.5603C35.0537 23.1167 34.7203 23.6223 34.3 24.0481C33.8798 24.4739 33.3808 24.8116 32.8316 25.042C32.2824 25.2723 31.6939 25.3908 31.0995 25.3906ZM28.7458 24.8927H31.0995C31.6293 24.8929 32.154 24.7874 32.6436 24.582C33.1331 24.3767 33.5779 24.0756 33.9526 23.696C34.3272 23.3165 34.6244 22.8658 34.8271 22.3698C35.0297 21.8738 35.1339 21.3422 35.1337 20.8053V17.4249H28.7458V24.8927Z" fill="#0F4D7F"/>
<path d="M32.4309 5.22745C32.426 6.14123 32.109 7.02511 31.5336 7.72882C30.9583 8.43253 30.1601 8.91264 29.2749 9.08755C28.3897 9.26246 27.4719 9.12137 26.6778 8.68825C25.8836 8.25514 25.262 7.55674 24.9186 6.71177C24.5752 5.86681 24.5312 4.92742 24.7941 4.05331C25.057 3.1792 25.6106 2.4243 26.3607 1.91695C27.1108 1.40961 28.0112 1.18111 28.9088 1.27032C29.8064 1.35952 30.6458 1.76092 31.2844 2.40628C31.6491 2.7771 31.9381 3.21714 32.1348 3.70122C32.3316 4.18531 32.4322 4.70394 32.4309 5.22745ZM11.793 5.22745C11.7929 6.12608 11.493 6.99829 10.9418 7.70234C10.3906 8.40639 9.62064 8.90089 8.75699 9.1055C7.89334 9.31011 6.98678 9.21279 6.18463 8.82935C5.38248 8.44592 4.73188 7.79891 4.33857 6.99347C3.94525 6.18803 3.83233 5.2715 4.01816 4.39281C4.20399 3.51413 4.67764 2.72494 5.36215 2.15348C6.04666 1.58203 6.90179 1.26191 7.78858 1.24514C8.67537 1.22837 9.54169 1.51593 10.2468 2.0611C10.7275 2.43282 11.1171 2.9119 11.3853 3.46109C11.6535 4.01027 11.793 4.61473 11.793 5.22745Z" fill="#2F4054"/>
<path d="M7.86214 9.46091C7.55703 9.46062 7.25282 9.42724 6.95473 9.36134C5.91299 9.12809 4.99903 8.49934 4.40077 7.60436C3.80251 6.70937 3.5654 5.61617 3.73821 4.54951C3.91101 3.48286 4.48059 2.52381 5.32983 1.86955C6.17908 1.21529 7.24345 0.915536 8.30412 1.03192C9.36479 1.14831 10.3411 1.67199 11.0324 2.4953C11.7238 3.3186 12.0775 4.37897 12.0209 5.45837C11.9643 6.53778 11.5017 7.5542 10.7281 8.29866C9.95463 9.04312 8.92901 9.45904 7.86214 9.46091ZM7.86214 1.49524C7.13271 1.49491 6.41958 1.71381 5.81297 2.12422C5.20637 2.53464 4.73354 3.11813 4.45433 3.80088C4.17512 4.48363 4.10206 5.23495 4.2444 5.95978C4.38675 6.68461 4.7381 7.35038 5.25399 7.87284C5.76989 8.3953 6.42715 8.75098 7.14261 8.89488C7.85808 9.03877 8.5996 8.96442 9.27334 8.68122C9.94709 8.39803 10.5228 7.91872 10.9276 7.30393C11.3324 6.68915 11.5481 5.96652 11.5475 5.22749C11.5466 4.23731 11.1581 3.28792 10.4672 2.5876C9.77631 1.88728 8.83944 1.49324 7.86214 1.49192V1.49524ZM28.5001 9.46091C27.9514 9.46091 27.4082 9.35139 26.9013 9.13862C26.3945 8.92585 25.934 8.614 25.5461 8.22087C25.1582 7.82774 24.8506 7.36103 24.6408 6.84742C24.431 6.33381 24.3231 5.78335 24.3233 5.22749C24.3233 4.10515 24.7634 3.02879 25.5467 2.23518C26.33 1.44157 27.3923 0.995728 28.5001 0.995728H28.5279C29.6357 0.999469 30.6966 1.4489 31.4772 2.24516C32.2579 3.04141 32.6944 4.11926 32.6907 5.24159C32.687 6.36393 32.2434 7.4388 31.4575 8.22977C30.6716 9.02073 29.6078 9.46299 28.5001 9.45925V9.46091ZM28.5263 1.49524H28.5001C27.5229 1.49524 26.5858 1.88841 25.8947 2.58829C25.2036 3.28817 24.8152 4.23748 24.8147 5.22749C24.8147 6.21778 25.203 7.16751 25.8941 7.86776C26.5853 8.568 27.5227 8.96139 28.5001 8.96139C29.4775 8.96139 30.4149 8.568 31.106 7.86776C31.7971 7.16751 32.1854 6.21778 32.1854 5.22749C32.1891 4.73834 32.0971 4.2533 31.9149 3.80033C31.7326 3.34736 31.4636 2.93544 31.1235 2.58832C30.7833 2.2412 30.3787 1.96575 29.9329 1.77786C29.4871 1.58996 29.0091 1.49335 28.5263 1.49358V1.49524Z" fill="#212D3A"/>
<path d="M32.0838 6.86709C31.7728 7.56622 31.2692 8.1595 30.6335 8.57568C29.9977 8.99187 29.2569 9.21326 28.5 9.21326C27.7432 9.21326 27.0024 8.99187 26.3666 8.57568C25.7309 8.1595 25.2273 7.56622 24.9163 6.86709L25.1456 6.63476C26.0363 5.73284 27.244 5.2262 28.5033 5.2262C29.7626 5.2262 30.9704 5.73284 31.8611 6.63476L32.0838 6.86709ZM11.4459 6.86709C11.1349 7.56622 10.6313 8.1595 9.99553 8.57568C9.3598 8.99187 8.619 9.21326 7.86211 9.21326C7.10522 9.21326 6.36443 8.99187 5.7287 8.57568C5.09297 8.1595 4.58935 7.56622 4.27832 6.86709L4.50763 6.63476C5.17158 5.96301 6.01702 5.50554 6.93729 5.32007C7.85756 5.13459 8.81144 5.22942 9.67858 5.59259L9.82763 5.65897C10.3445 5.89748 10.8149 6.22798 11.2166 6.63476L11.4459 6.86709Z" fill="#C4D4E0"/>
<path d="M28.5 7.21887C30.3245 7.21887 32.0743 7.9532 33.3644 9.26033C34.6545 10.5674 35.3793 12.3403 35.3793 14.1888H28.5V7.21887Z" fill="#396795"/>
<path d="M35.6251 14.4378H28.2544V6.96997H28.5001C30.3898 6.96997 32.202 7.73053 33.5382 9.08433C34.8744 10.4381 35.6251 12.2743 35.6251 14.1889V14.4378ZM28.7458 13.9399H35.1337C35.0735 12.2429 34.3812 10.6319 33.196 9.43106C32.0108 8.23028 30.4208 7.52882 28.7458 7.46782V13.9399Z" fill="#0F4D7F"/>
<path d="M22.6033 3.23602V8.21456L20.6378 10.206H16.7068V3.23602H22.6033Z" fill="#26507A"/>
<path d="M16.7068 6.22315V3.23603L19.6551 5.22744L22.6034 3.23603C22.6034 2.44379 22.2928 1.684 21.7398 1.12381C21.1869 0.563615 20.437 0.248901 19.6551 0.248901H16.7068C15.9249 0.248901 15.175 0.563615 14.6221 1.12381C14.0692 1.684 13.7585 2.44379 13.7585 3.23603L16.7068 6.22315Z" fill="#396795"/>
<path d="M16.9526 6.82392L13.5129 3.33894V3.23605C13.5129 2.3778 13.8494 1.55469 14.4484 0.947818C15.0474 0.34094 15.8598 0 16.7069 0H19.6552C20.5023 0 21.3147 0.34094 21.9137 0.947818C22.5126 1.55469 22.8491 2.3778 22.8491 3.23605V3.36881L19.6552 5.52618L16.9526 3.70072V6.82392ZM14.0043 3.13482L16.4612 5.62409V2.77139L19.6552 4.92876L22.3545 3.10329C22.3212 2.40076 22.0223 1.73818 21.5197 1.25305C21.0171 0.767911 20.3494 0.497473 19.6552 0.497854H16.7069C16.0073 0.497385 15.3348 0.77199 14.831 1.26385C14.3272 1.75571 14.0314 2.42644 14.006 3.13482H14.0043Z" fill="#0F4D7F"/>
<path d="M10.8103 20.1631V17.1759C10.8103 16.3837 11.1209 15.6239 11.6738 15.0637C12.2267 14.5035 12.9766 14.1888 13.7586 14.1888H15.7241V17.1759H18.6724V20.1631H10.8103ZM13.7586 3.23602V7.21886L16.7069 10.206V6.22315L13.7586 3.23602Z" fill="#C4D4E0"/>
<path d="M22.6035 24.1459H17.6897V28.1288H22.6035V24.1459Z" fill="#C4D4E0"/>
<path d="M17.6896 20.1631V25.1416H6.39282L11.1002 20.1631H17.6896Z" fill="#396795"/>
<path d="M17.9354 25.3906H5.8147L10.9922 19.9142H17.9354V25.3906ZM6.96944 24.8927H17.4522V20.412H11.2051L6.96944 24.8927Z" fill="#0F4D7F"/>
<path d="M5.89665 25.1416C4.71931 24.2475 3.8158 23.0339 3.29059 21.6413C2.76538 20.2488 2.63992 18.734 2.92872 17.2722L2.94838 17.176H8.84493L10.8104 20.1631L5.89665 25.1416Z" fill="#396795"/>
<path d="M5.91954 25.4735L5.75575 25.3441C4.54161 24.4216 3.60985 23.17 3.06815 21.7337C2.52644 20.2974 2.39688 18.7351 2.69445 17.2274L2.75342 16.9304H8.97756L11.1282 20.1979L5.91954 25.4735ZM3.1498 17.4249C2.90073 18.7905 3.02276 20.1991 3.50284 21.4999C3.98292 22.8006 4.80299 23.9447 5.87531 24.8097L10.4943 20.1299L8.71385 17.4249H3.1498Z" fill="#0F4D7F"/>
<path d="M56.9999 35.0987V58H37.3447V35.0987L37.8771 33.6583C38.5874 31.7419 39.8578 30.0907 41.5187 28.9252C43.1796 27.7596 45.1519 27.1351 47.1723 27.1351C49.1927 27.1351 51.165 27.7596 52.8259 28.9252C54.4868 30.0907 55.7572 31.7419 56.4676 33.6583L56.9999 35.0987Z" fill="#396795"/>
<path d="M22.6035 22.1545H28.5001V24.1459C28.5001 24.6741 28.293 25.1806 27.9244 25.554C27.5558 25.9275 27.0558 26.1373 26.5346 26.1373H24.569C24.0477 26.1373 23.5478 25.9275 23.1792 25.554C22.8106 25.1806 22.6035 24.6741 22.6035 24.1459V22.1545Z" fill="#396795"/>
<path d="M26.5344 26.3863H24.5689C23.9827 26.3854 23.4208 26.1491 23.0063 25.7291C22.5918 25.3092 22.3585 24.7398 22.3577 24.1459V21.9056H28.7456V24.1459C28.7447 24.7398 28.5115 25.3092 28.097 25.7291C27.6825 26.1491 27.1206 26.3854 26.5344 26.3863ZM22.849 22.4034V24.1459C22.8495 24.6079 23.0308 25.0509 23.3533 25.3776C23.6757 25.7042 24.1129 25.888 24.5689 25.8884H26.5344C26.9903 25.8875 27.4272 25.7037 27.7495 25.3771C28.0719 25.0505 28.2534 24.6078 28.2542 24.1459V22.4034H22.849Z" fill="#0F4D7F"/>
<path d="M10.8103 6.22321H13.7586V7.21891L16.7069 10.206H20.6379L22.6034 8.21462V6.22321H25.5517V10.206L22.6034 13.1932H14.7413L10.8103 9.21033V6.22321Z" fill="#396795"/>
<path d="M22.705 13.4421H14.6399L10.5647 9.31318V5.97424H14.0044V7.11599L16.8085 9.95708H20.5364L22.3578 8.1117V5.97424H25.7975V10.3089L22.705 13.4421ZM14.843 12.9442H22.5019L25.3061 10.1031V6.4721H22.8492V8.31748L20.7395 10.4549H16.6054L13.513 7.32177V6.4721H11.0561V9.1074L14.843 12.9442Z" fill="#0F4D7F"/>
<path d="M7.86198 14.1888H0.982666C0.982666 12.3403 1.70745 10.5674 2.99757 9.26033C4.28769 7.9532 6.03747 7.21887 7.86198 7.21887V14.1888Z" fill="#396795"/>
<path d="M8.10775 14.4378H0.737061V14.1889C0.737061 12.2743 1.48773 10.4381 2.82393 9.08433C4.16012 7.73053 5.97239 6.96997 7.86206 6.96997H8.10775V14.4378ZM1.22844 13.9399H7.61637V7.46782C5.94137 7.52882 4.35132 8.23028 3.16615 9.43106C1.98097 10.6319 1.28864 12.2429 1.22844 13.9399Z" fill="#0F4D7F"/>
<path d="M56.9999 35.0987H37.3447V39.0815H56.9999V35.0987Z" fill="#C4D4E0"/>
<path d="M56.9999 42.0687H37.3447V55.0129H56.9999V42.0687Z" fill="#2D80B3"/>
<path d="M56.9999 35.0987H37.3447L37.8771 33.6583C38.5874 31.7419 39.8578 30.0907 41.5187 28.9252C43.1796 27.7596 45.1519 27.1351 47.1723 27.1351C49.1927 27.1351 51.165 27.7596 52.8259 28.9252C54.4868 30.0907 55.7572 31.7419 56.4676 33.6583L56.9999 35.0987Z" fill="#C4D4E0"/>
<path d="M53.7896 29.6936C49.5461 31.4411 44.797 31.4411 40.5535 29.6936C42.3732 28.0437 44.7295 27.1315 47.1715 27.1315C49.6135 27.1315 51.9698 28.0437 53.7896 29.6936Z" fill="#396795"/>
<path d="M56.9999 35.1469H37.3447V36.0944H56.9999V35.1469Z" fill="#A5A5A5"/>
<path d="M49.138 48.627L47.1725 50.6185L45.207 48.627V46.0515H49.138V48.627ZM50.1208 44.0601H44.2242C43.9636 44.0601 43.7136 44.165 43.5293 44.3517C43.345 44.5384 43.2415 44.7917 43.2415 45.0558V49.0386C43.2411 49.1695 43.2663 49.2991 43.3155 49.4202C43.3647 49.5412 43.4369 49.6512 43.5281 49.7439L46.4764 52.731C46.5677 52.8238 46.6762 52.8975 46.7956 52.9477C46.9151 52.998 47.0431 53.0239 47.1725 53.0239C47.3018 53.0239 47.4299 52.998 47.5494 52.9477C47.6688 52.8975 47.7773 52.8238 47.8686 52.731L50.8169 49.7439C50.9081 49.6512 50.9803 49.5412 51.0295 49.4202C51.0787 49.2991 51.1038 49.1695 51.1035 49.0386V45.0558C51.1035 44.7917 51 44.5384 50.8157 44.3517C50.6314 44.165 50.3814 44.0601 50.1208 44.0601Z" fill="#F40000"/>
<path d="M7.86204 38.0858L2.94824 46.0515V49.0386L4.52066 48.242C5.77175 47.6083 7.22009 47.504 8.54706 47.9522C9.87403 48.4003 10.971 49.3642 11.5965 50.6317L11.7931 51.03H13.7586L14.7413 42.0686L13.7586 39.0815L7.86204 38.0858Z" fill="#396795"/>
<path d="M13.9782 51.279H11.6408L11.3771 50.7429C11.0818 50.1445 10.673 49.6108 10.1742 49.1724C9.6753 48.734 9.09607 48.3995 8.46958 48.1879C7.84309 47.9763 7.1816 47.8918 6.52289 47.9393C5.86417 47.9867 5.22113 48.1652 4.63048 48.4644L2.70264 49.4419V45.9801L7.74091 37.8137L13.9454 38.8608L14.992 42.0421L13.9782 51.279ZM11.9455 50.7811H13.5392L14.4908 42.0952L13.5719 39.3022L7.98333 38.358L3.19402 46.1228V48.6353L4.411 48.0197C5.72032 47.3565 7.23601 47.2474 8.6247 47.7164C10.0134 48.1854 11.1614 49.1941 11.8161 50.5206L11.9455 50.7811Z" fill="#0F4D7F"/>
<path d="M12.7759 40.0772C12.7759 40.8695 12.4653 41.6293 11.9124 42.1894C11.3595 42.7496 10.6096 43.0644 9.82767 43.0644C9.04574 43.0644 8.29583 42.7496 7.74292 42.1894C7.19002 41.6293 6.87939 40.8695 6.87939 40.0772C6.88012 39.9104 6.89381 39.744 6.92034 39.5794C7.03382 38.9032 7.37352 38.2871 7.88239 37.8348C8.39126 37.3824 9.03829 37.1212 9.71478 37.0951C10.3913 37.069 11.056 37.2796 11.5974 37.6915C12.1387 38.1034 12.5236 38.6915 12.6875 39.357C12.7055 39.4317 12.7219 39.5064 12.735 39.5827C12.7615 39.7462 12.7752 39.9115 12.7759 40.0772Z" fill="#396795"/>
<path d="M9.82751 43.3116C9.40803 43.3123 8.99254 43.2291 8.60485 43.0668C8.21715 42.9045 7.86487 42.6663 7.56818 42.3659C7.27148 42.0654 7.03621 41.7086 6.87583 41.3159C6.71545 40.9232 6.63312 40.5022 6.63355 40.0772C6.63359 39.8954 6.64838 39.7139 6.67777 39.5346C6.80489 38.7813 7.19074 38.0979 7.76712 37.605C8.34349 37.1122 9.07329 36.8416 9.82751 36.8412C10.5398 36.8414 11.2316 37.0827 11.793 37.5268C12.3545 37.9708 12.7534 38.5922 12.9265 39.2923C12.9478 39.3802 12.9642 39.4582 12.9773 39.5396C13.0547 40.0035 13.0313 40.4789 12.9087 40.9327C12.786 41.3865 12.5671 41.8077 12.2672 42.1669C11.9672 42.5261 11.5935 42.8146 11.1722 43.0123C10.7508 43.21 10.2919 43.3122 9.82751 43.3116ZM9.82751 37.3374C9.40933 37.3375 8.997 37.437 8.62363 37.6278C8.24355 37.8207 7.91357 38.1014 7.66034 38.4474C7.40711 38.7933 7.23773 39.1947 7.16587 39.6192C7.14013 39.7705 7.12644 39.9237 7.12493 40.0772C7.12493 40.8035 7.40966 41.4999 7.9165 42.0134C8.42333 42.5269 9.11074 42.8154 9.82751 42.8154C10.5443 42.8154 11.2317 42.5269 11.7385 42.0134C12.2454 41.4999 12.5301 40.8035 12.5301 40.0772C12.5298 39.9243 12.5172 39.7717 12.4924 39.6209C12.481 39.5495 12.4662 39.4815 12.4498 39.4134C12.303 38.8216 11.9655 38.2962 11.4909 37.9205C11.0162 37.5448 10.4315 37.3402 9.82915 37.339L9.82751 37.3374Z" fill="#0F4D7F"/>
<path d="M7.86207 6.22321H10.8103V17.176H0V14.1889H7.86207V6.22321Z" fill="#EEBE33"/>
<path d="M28.5 6.22321H25.5518V17.176H36.3621V14.1889H28.5V6.22321Z" fill="#EEBE33"/>
<path d="M15.7241 14.1888H31.4483V18.1717H18.6724V17.176H15.7241V14.1888Z" fill="#2F4054"/>
<path d="M22.6035 18.1717V24.1459H17.6897V20.1631H18.6725V18.1717H22.6035Z" fill="#262D43"/>
<path d="M17.6896 14.1888H20.6379V11.2017H15.7241L17.6896 14.1888ZM26.5345 14.1888H23.5862V11.2017H28.5L26.5345 14.1888Z" fill="#2F4054"/>
<path d="M23.5862 11.2017H20.6379V14.1888H23.5862V11.2017Z" fill="#262D43"/>
<path d="M31.4483 18.1717H22.6035V22.1545H31.4483V18.1717Z" fill="#C4D4E0"/>
</g>
<defs>
<clipPath id="clip0_34_668">
<rect width="57" height="58" fill="white"/>
</clipPath>
</defs>
</svg>
