<svg width="62" height="62" viewBox="0 0 62 62" fill="none" xmlns="http://www.w3.org/2000/svg">
<path d="M61.4911 30.9161C61.4911 47.7951 47.808 61.4782 30.929 61.4782C14.0501 61.4782 0.366943 47.7951 0.366943 30.9161C0.366943 14.0371 14.0501 0.354004 30.929 0.354004C47.808 0.354004 61.4911 14.0371 61.4911 30.9161Z" fill="#4479A1"/>
<path fill-rule="evenodd" clip-rule="evenodd" d="M6.80949 40.1749V33.3192L9.51214 39.2965C9.81827 40.015 10.2581 40.2811 11.1096 40.2811C11.9612 40.2811 12.3747 40.0147 12.691 39.2965L15.3802 33.3192V40.1749H17.1242V33.3192C17.1242 32.6539 16.8577 32.3337 16.2986 32.1607C14.9807 31.7614 14.102 32.1075 13.7028 32.9991L11.0538 38.9098L8.49768 32.9991C8.11158 32.1075 7.21945 31.7614 5.88842 32.1607C5.3424 32.3337 5.07625 32.6536 5.07625 33.3192L5.07595 40.1749H6.80949ZM18.5647 34.5972H20.3087V38.3647C20.2956 38.5774 20.3752 39.0569 21.3232 39.0697C21.8155 39.0832 25.0773 39.0697 25.1035 39.0697V34.5703H26.8475V40.7341C26.8475 42.2516 24.9678 42.584 24.0918 42.5977H18.6077V41.44H24.1058C25.2241 41.3201 25.091 40.7612 25.091 40.5747V40.1218H21.4031C19.6857 40.1084 18.5805 39.3496 18.5677 38.4843V34.5966L18.5647 34.5972ZM55.9727 30.2305C54.9082 30.2036 54.0823 30.3105 53.39 30.6035C53.1907 30.684 52.8709 30.684 52.8446 30.9364C52.9511 31.0424 52.964 31.2157 53.0574 31.3625C53.217 31.629 53.4969 31.9879 53.7496 32.1741C54.0294 32.3874 54.309 32.6002 54.6014 32.7866C55.1206 33.1059 55.7063 33.2924 56.212 33.6119C56.505 33.7984 56.7977 34.038 57.0907 34.2379C57.2399 34.3444 57.3303 34.5178 57.5168 34.584V34.5437C57.4237 34.4244 57.3969 34.2513 57.3041 34.1177C57.1707 33.9849 57.0376 33.8647 56.9043 33.7319C56.5185 33.2127 56.039 32.7598 55.5198 32.3874C55.0937 32.0944 54.1622 31.6952 53.9892 31.2029L53.9629 31.176C54.2553 31.1492 54.6014 31.0427 54.8813 30.9627C55.3342 30.8433 55.7466 30.8696 56.212 30.75C56.4254 30.6962 56.6381 30.63 56.8514 30.5635V30.4441C56.6119 30.2045 56.4388 29.885 56.1861 29.6588C55.5073 29.0731 54.7614 28.5005 53.9892 28.0213C53.5765 27.7552 53.0439 27.5818 52.6047 27.356C52.4445 27.276 52.1787 27.236 52.0856 27.103C51.8454 26.8106 51.7126 26.4242 51.5395 26.0778C51.1537 25.3456 50.7808 24.5337 50.4481 23.7615C50.2085 23.2423 50.0617 22.7232 49.7693 22.244C48.398 19.9808 46.9067 18.6098 44.617 17.2651C44.1247 16.9855 43.539 16.8652 42.9163 16.719L41.918 16.6653C41.7046 16.5722 41.4919 16.3192 41.3054 16.1993C40.5466 15.7201 38.5896 14.6818 38.0302 16.0531C37.6706 16.9183 38.5628 17.7702 38.8656 18.2097C39.0924 18.5158 39.3848 18.8619 39.545 19.208C39.6345 19.4342 39.6644 19.6741 39.7577 19.9137C39.9705 20.4994 40.1704 21.1519 40.45 21.698C40.5992 21.9775 40.7558 22.2708 40.9423 22.5236C41.0488 22.6698 41.2353 22.7366 41.275 22.9762C41.0885 23.2426 41.0757 23.6416 40.9691 23.9748C40.4897 25.4792 40.6761 27.3428 41.3549 28.4474C41.5683 28.7801 42.071 29.5126 42.7531 29.2327C43.3522 28.9931 43.2186 28.2344 43.3916 27.5687C43.4319 27.4091 43.405 27.3026 43.4847 27.1957V27.2226L44.0307 28.3275C44.4434 28.9797 45.1624 29.6588 45.7613 30.1117C46.0805 30.3513 46.3336 30.7643 46.7328 30.9105V30.8702H46.7065C46.6266 30.7508 46.5066 30.6971 46.4001 30.604C46.1605 30.3645 45.8944 30.0715 45.7079 29.8053C45.149 29.06 44.6567 28.2344 44.2172 27.3825C44.0039 26.9699 43.8174 26.5173 43.6449 26.1046C43.5644 25.9447 43.5644 25.7048 43.4316 25.6254C43.2317 25.9178 42.9393 26.1714 42.7922 26.5307C42.5392 27.103 42.5129 27.8086 42.4198 28.5408C42.3661 28.5542 42.39 28.5408 42.3661 28.5677C41.9406 28.4614 41.7938 28.0216 41.6342 27.6493C41.235 26.704 41.1681 25.1865 41.5143 24.0948C41.6073 23.8152 42.0072 22.9365 41.8475 22.6704C41.767 22.4173 41.5014 22.2711 41.3546 22.0712C41.1816 21.8182 40.9957 21.4989 40.8757 21.2194C40.5565 20.4734 40.3969 19.6484 40.0504 18.9028C39.8902 18.5567 39.611 18.1972 39.3845 17.8779C39.1315 17.5184 38.8525 17.2654 38.6526 16.8396C38.586 16.6934 38.493 16.4535 38.5995 16.2936C38.6257 16.187 38.6794 16.1474 38.7854 16.1205C38.9584 15.9743 39.4513 16.1605 39.6244 16.2399C40.1167 16.4398 40.5293 16.6259 40.942 16.9052C41.1285 17.0383 41.3284 17.2913 41.568 17.3581H41.8478C42.2739 17.4512 42.7528 17.385 43.1517 17.5043C43.8574 17.7311 44.4962 18.0635 45.0691 18.4233C46.8127 19.5282 48.2509 21.0991 49.2224 22.9765C49.382 23.2826 49.4486 23.5622 49.5954 23.8817C49.8752 24.5343 50.2213 25.1996 50.5003 25.8391C50.7802 26.4647 51.0463 27.1042 51.4456 27.6233C51.6455 27.9029 52.4439 28.0491 52.8031 28.1956C53.0696 28.3149 53.4819 28.4224 53.7221 28.5686C54.1745 28.8481 54.6271 29.1677 55.0529 29.4738C55.2656 29.6331 55.9316 29.9661 55.9712 30.2317L55.9727 30.2305ZM42.3968 18.662C42.2129 18.6604 42.0296 18.6828 41.8514 18.7286V18.7554H41.8777C41.9842 18.9685 42.1707 19.115 42.3038 19.3014L42.6102 19.9406L42.6364 19.9137C42.8229 19.7806 42.9163 19.5676 42.9163 19.2483C42.8363 19.1552 42.8232 19.0618 42.7567 18.9688C42.6767 18.8357 42.5037 18.7682 42.3968 18.662Z" fill="#EEEBDF"/>
<path fill-rule="evenodd" clip-rule="evenodd" d="M28.1765 40.1749H33.1819C33.7676 40.1749 34.3271 40.0556 34.7794 39.8422C35.5382 39.4961 35.8977 39.0307 35.8977 38.4181V37.1402C35.8977 36.6479 35.4851 36.1815 34.6601 35.8622C34.234 35.7026 33.7014 35.6092 33.1822 35.6092H31.0787C30.3731 35.6092 30.0404 35.3959 29.947 34.9304C29.9339 34.8773 29.9339 34.8239 29.9339 34.7708V33.9852C29.9339 33.9449 29.9339 33.8921 29.947 33.839C30.0401 33.4795 30.2266 33.3861 30.8421 33.3198H35.9672V32.1612H31.0948C30.3892 32.1612 30.0165 32.2015 29.6835 32.308C28.6583 32.6273 28.2057 33.1333 28.2057 34.0249V35.0372C28.2057 35.822 29.0844 36.4882 30.5754 36.6479C30.735 36.6613 30.9081 36.6613 31.0811 36.6613H32.8785C32.945 36.6613 33.0113 36.6613 33.0644 36.6747C33.6104 36.7278 33.85 36.8209 34.0096 37.0202C34.1161 37.1267 34.143 37.2201 34.143 37.3401V38.3516C34.143 38.4709 34.063 38.6314 33.9034 38.7642C33.7438 38.897 33.4902 38.9904 33.1575 39.0038C33.0909 39.0038 33.0516 39.0172 32.9844 39.0172H28.1765V40.1749ZM46.7337 38.1651C46.7337 39.3496 47.6288 40.015 49.4101 40.1486C49.5831 40.1621 49.7427 40.1749 49.9158 40.1749H54.4421V39.0172H49.8761C48.8637 39.0172 48.478 38.7642 48.478 38.1519V32.1612H46.7304V38.1654L46.7337 38.1651ZM37.0023 38.2179V34.0914C37.0023 33.0396 37.7476 32.4002 39.1992 32.2009C39.3588 32.1875 39.5185 32.1741 39.6647 32.1741H42.9658C43.1389 32.1741 43.2857 32.1875 43.4587 32.2009C44.9097 32.4002 45.6416 33.0394 45.6416 34.0914V38.2179C45.6416 39.0697 45.3358 39.5227 44.6164 39.8291L46.3201 41.3729H44.3103L42.9259 40.1218L41.5277 40.2018H39.6641C39.3226 40.2001 38.9826 40.1555 38.6523 40.069C37.5483 39.7623 37.0023 39.1768 37.0023 38.2179ZM38.879 38.1254C38.879 38.1785 38.9089 38.2313 38.9193 38.2984C39.0124 38.7773 39.4647 39.0438 40.157 39.0438H41.7282L40.2906 37.739H42.3005L43.565 38.8841C43.8052 38.7508 43.9514 38.5643 44.0045 38.3247C44.0179 38.2716 44.0179 38.2054 44.0179 38.1516V34.1976C44.0179 34.1445 44.0179 34.0917 44.0045 34.038C43.9114 33.5857 43.459 33.333 42.78 33.333H40.1573C39.3851 33.333 38.8793 33.6656 38.8793 34.1976L38.879 38.1254Z" fill="#CE8B2C"/>
</svg>
