<svg width="60" height="58" viewBox="0 0 60 58" fill="none" xmlns="http://www.w3.org/2000/svg">
<path d="M2.64233 2.45831H56.7257V55.0666H2.64233V2.45831Z" fill="#2A0034"/>
<path d="M0.184082 0V57.525H59.1841V0H0.184082ZM2.64242 2.45833H56.7257V55.0667H2.64242V2.45833ZM15.4995 13.4717C15.4995 13.2996 15.5487 13.1767 15.7453 13.1767C17.3187 13.1029 19.6295 13.0537 22.0632 13.0537C28.8728 13.0537 31.8474 16.7904 31.8474 21.5842C31.8474 27.8283 27.3241 30.5079 21.7682 30.5079C20.8341 30.5079 20.5145 30.4587 19.8507 30.4587V39.8988C19.8507 40.0954 19.777 40.1937 19.5557 40.1937H15.7699C15.5732 40.1937 15.4749 40.12 15.4749 39.8988C15.4749 39.8988 15.4749 13.4717 15.4995 13.4717ZM19.8507 26.5254C20.4162 26.5746 20.8587 26.5746 21.842 26.5746C24.7182 26.5746 27.4224 25.5667 27.4224 21.6579C27.4224 18.5358 25.5049 16.9625 22.2107 16.9625C21.2274 16.9625 20.2932 17.0117 19.8507 17.0362V26.5254ZM35.5841 24.2883C35.5841 23.9933 35.5841 23.2804 35.4612 21.9037C35.4612 21.7071 35.4857 21.6579 35.6578 21.5842C37.1574 20.9696 40.6728 19.8879 44.6553 19.8879C44.852 19.8879 44.9503 19.9371 44.9503 20.1337V23.6983C44.9503 23.895 44.8766 23.9442 44.6799 23.9442C43.1312 23.8704 40.8941 24.0671 40.0337 24.4358V39.9233C40.0337 40.12 39.9599 40.2183 39.7387 40.2183H35.8791C35.6824 40.2183 35.5841 40.1446 35.5841 39.9233V24.2883Z" fill="#EA77FF"/>
</svg>
