<svg width="64" height="57" viewBox="0 0 64 57" fill="none" xmlns="http://www.w3.org/2000/svg">
<path d="M43.9389 0.194703C46.5839 0.194703 49.028 1.6058 50.3506 3.89645L62.4574 24.8662C63.7799 27.1568 63.7799 29.979 62.4574 32.2696L50.3506 53.2394C49.028 55.53 46.584 56.9411 43.9389 56.9411H19.7252C17.0802 56.9411 14.6361 55.53 13.3136 53.2394L1.20672 32.2696C-0.115782 29.979 -0.115784 27.1568 1.20672 24.8662L13.3136 3.89645C14.6361 1.6058 17.0802 0.194702 19.7252 0.194702L43.9389 0.194703Z" fill="#6CB33E"/>
<path d="M29.4162 12.3992C29.4162 10.9226 30.6132 9.72566 32.0897 9.72566C33.5662 9.72566 34.7632 10.9226 34.7632 12.3991V27.2061C34.7632 28.6827 33.5662 29.8796 32.0897 29.8796C30.6132 29.8796 29.4162 28.6827 29.4162 27.2061V12.3992Z" fill="#EEEBDF"/>
<path d="M25.2274 13.8947C24.5894 12.6055 23.0128 12.0628 21.8312 12.883C19.3204 14.6259 17.2912 16.9992 15.9602 19.7833C14.2527 23.3548 13.7928 27.396 14.6541 31.2599C15.5155 35.1238 17.6482 38.5871 20.7111 41.0952C23.7739 43.6034 27.5896 45.0115 31.5475 45.0941C35.5054 45.1767 39.3766 43.929 42.5414 41.5508C45.7061 39.1726 47.9816 35.8014 49.0034 31.9768C50.0252 28.1522 49.7343 24.0953 48.1773 20.4556C46.9635 17.6184 45.0351 15.1626 42.5993 13.3165C41.4529 12.4476 39.8551 12.9241 39.1638 14.1856C38.4726 15.447 38.9589 17.0121 40.0497 17.9497C41.4874 19.1855 42.6335 20.7404 43.3881 22.5044C44.4865 25.0721 44.6918 27.9341 43.9709 30.6323C43.25 33.3305 41.6448 35.7088 39.4121 37.3865C37.1794 39.0643 34.4484 39.9445 31.6562 39.8862C28.864 39.8279 26.1721 38.8346 24.0113 37.0651C21.8506 35.2957 20.346 32.8525 19.7383 30.1266C19.1306 27.4007 19.4551 24.5497 20.6597 22.03C21.4872 20.2991 22.6973 18.7933 24.1852 17.6186C25.3142 16.7273 25.8653 15.1839 25.2274 13.8947Z" fill="#EEEBDF"/>
</svg>
