<svg width="77" height="63" viewBox="0 0 77 63" fill="none" xmlns="http://www.w3.org/2000/svg">
<path fill-rule="evenodd" clip-rule="evenodd" d="M36.8488 16.3467C36.8488 7.7138 43.9113 0.716553 52.6197 0.716553C57.1032 0.716553 61.156 2.56231 64.0209 5.54643C67.4779 4.86465 70.7292 3.59347 73.6683 1.87076L74.2341 1.53914L74.0326 2.16324C72.9747 5.44065 70.8421 8.26463 68.0554 10.2069C70.7739 9.77691 73.3611 9.01682 75.7862 7.94268L76.5745 7.59349L76.0952 8.31022C74.0302 11.3984 71.4213 14.1067 68.3968 16.2635C68.4248 16.8774 68.4432 17.4995 68.4432 18.1242C68.4432 38.5684 52.7425 62.1487 24.0341 62.1487C15.2254 62.1487 7.01856 59.5835 0.107422 55.2078L0.271213 54.7484C1.47519 54.8942 2.69428 54.9651 3.94121 54.9651C10.9078 54.9651 17.3338 52.6847 22.5111 48.8513C15.9228 48.4354 10.4245 44.0072 8.4855 38.021L8.3569 37.624L8.76762 37.6979C9.70287 37.8663 10.6646 37.9776 11.6481 37.9776C12.6716 37.9776 13.673 37.8721 14.6397 37.6766C7.95515 35.8671 3.03146 29.8025 3.03146 22.587V21.9868L3.40043 22.1864C5.22499 23.1736 7.27755 23.8323 9.45684 24.0251C5.63143 21.1646 3.16593 16.6299 3.16593 11.5183C3.16593 8.66405 3.93452 5.95803 5.30187 3.64636L5.4835 3.33929L5.71012 3.61483C13.2542 12.7871 24.4991 18.8581 37.1889 19.5882C36.9665 18.5354 36.8488 17.4542 36.8488 16.3467ZM52.6197 1.21655C44.1831 1.21655 37.3488 7.99418 37.3488 16.3467C37.3488 17.5288 37.4873 18.6801 37.7478 19.7988L37.8231 20.1218L37.4918 20.1052C24.6513 19.4609 13.248 13.4106 5.55433 4.21021C4.34358 6.37603 3.66593 8.88075 3.66593 11.5183C3.66593 16.7694 6.35409 21.3932 10.4564 24.1185L11.1863 24.6033L10.3104 24.5766C7.87313 24.5021 5.57181 23.8586 3.53325 22.8208C3.64367 30.0545 8.86925 36.0532 15.7752 37.4299L15.7924 37.9162C14.4755 38.2769 13.0834 38.4776 11.6481 38.4776C10.7744 38.4776 9.92165 38.393 9.09485 38.2608C11.1527 44.0557 16.6884 48.2529 23.2217 48.3803L23.9294 48.3941L23.37 48.8278C18.0161 52.9787 11.2727 55.4651 3.94121 55.4651C3.04953 55.4651 2.17115 55.4294 1.30169 55.3564C7.93797 59.3348 15.7143 61.6487 24.0341 61.6487C52.4129 61.6487 67.9432 38.3491 67.9432 18.1242C67.9432 17.4633 67.9223 16.8036 67.8909 16.1507L67.8843 16.0136L67.9964 15.9345C70.7838 13.9659 73.2171 11.5217 75.1926 8.739C72.6176 9.79317 69.8732 10.5061 66.9946 10.8609L66.8364 10.3978C69.8032 8.63634 72.1261 5.88954 73.3394 2.63503C70.4697 4.23789 67.3197 5.42085 63.9815 6.06351L63.8466 6.08947L63.7523 5.98955C60.9745 3.04424 57.0119 1.21655 52.6197 1.21655Z" fill="black"/>
</svg>
