<svg width="77" height="62" viewBox="0 0 77 62" fill="none" xmlns="http://www.w3.org/2000/svg">
<path d="M76.3103 7.54943C73.5306 8.78068 70.5407 9.60221 67.3869 9.99092C70.5932 8.08731 73.0599 5.05121 74.2176 1.46462C71.2172 3.22325 67.8933 4.51543 64.3571 5.19619C61.5332 2.20211 57.5054 0.344727 53.0426 0.344727C44.4701 0.344727 37.5217 7.23216 37.5217 15.7248C37.5217 16.9267 37.6625 18.097 37.9272 19.2337C25.0306 18.5866 13.5922 12.4555 5.93995 3.15181C4.59524 5.42521 3.83884 8.08732 3.83884 10.8965C3.83884 16.2354 6.57238 20.9356 10.741 23.7049C8.19654 23.6271 5.80128 22.919 3.70437 21.7844C3.70437 21.8307 3.70437 21.9 3.70437 21.9651C3.70437 29.4262 9.05589 35.6392 16.1492 37.0532C14.8529 37.4083 13.4829 37.6058 12.071 37.6058C11.0688 37.6058 10.0917 37.4923 9.14624 37.3222C11.1213 43.4196 16.851 47.876 23.6397 48.0084C18.3281 52.1266 11.6382 54.5933 4.36412 54.5933C3.10765 54.5933 1.8785 54.5218 0.664062 54.3748C7.53679 58.7262 15.6975 61.2769 24.457 61.2769C53.0006 61.2769 68.6161 37.8369 68.6161 17.5024C68.6161 16.8363 68.595 16.1724 68.5635 15.5168C71.6101 13.3653 74.2365 10.6507 76.3103 7.54943Z" fill="#03A9F4"/>
</svg>
